<svg xmlns="http://www.w3.org/2000/svg" xmlns:xlink="http://www.w3.org/1999/xlink" viewBox="0 0 705.3 210"><g fill="#F78E1E"><path d="M9.3 138.8V12.3h60.5v10.2H24.4v44.9h43V78h-43v49.9h47.2v10.9H9.3zM107.4 138.8V22.5H77.9V12.3h73.9v10.2h-29.4v116.3h-15zM225.5 13.4v14.7c-11-5.1-21-7.6-29.8-7.6-6.6 0-11.9 1.7-15.9 5.1-4 3.4-6 7.9-6 13.4a18 18 0 0 0 3.6 11.1c2.4 3.2 5.2 5.7 8.2 7.7 3.1 1.9 7.8 4.5 14.1 7.8a179 179 0 0 1 13.8 7.8c5.4 3.7 9.5 6.8 12.1 9.3 2.6 2.5 4.7 5.5 6.1 9 1.4 3.5 2.2 7.9 2.2 13.3 0 8.1-1.9 14.8-5.8 20.2-3.9 5.4-9.2 9.4-15.9 11.9-6.7 2.6-14.3 3.9-22.6 3.9-10.5 0-20.2-1.3-29.1-3.8v-15.9c3.1 1.5 6.2 2.9 9.3 4.1 3.1 1.3 6.7 2.4 10.6 3.4 3.9 1 7.8 1.5 11.6 1.5 8 0 14.3-1.9 18.9-5.8 4.5-3.9 6.8-9.4 6.8-16.5 0-4.3-1-8-3-11.2-2-3.1-4.6-5.9-7.9-8.2-3.2-2.3-8.3-5.3-15.1-8.9-6.8-3.6-10.7-5.6-11.5-6.1-6.5-3.5-11.6-7.7-15.3-12.5-3.7-4.8-5.5-11.1-5.5-18.7 0-5.1.9-9.6 2.7-13.5 1.8-3.9 4.4-7.3 7.9-10s7.6-4.8 12.4-6.2c4.8-1.4 10.3-2.2 16.3-2.2 8-.2 17 .8 26.8 2.9zM255.5 138.8V12.3h15.1v126.5h-15.1zM316.1 138.8V22.5h-29.4V12.3h73.9v10.2h-29.4v116.3h-15.1z"/></g><g fill="#004990"><path d="M24.1 89.4V77.5h5.7v1h-4.3v4.2h4.1v1h-4.1v4.7H30v1h-5.9zM37.6 77.6V79c-1-.5-2-.7-2.8-.7-.6 0-1.1.2-1.5.5s-.6.7-.6 1.3c0 .4.1.7.3 1 .2.3.5.5.8.7s.7.4 1.3.7 1 .6 1.3.7c.5.4.9.6 1.1.9s.4.5.6.8c.1.3.2.7.2 1.3 0 .8-.2 1.4-.6 1.9-.4.5-.9.9-1.5 1.1-.6.2-1.4.4-2.1.4-1 0-1.9-.1-2.8-.4v-1.5c.3.1.6.3.9.4.3.1.6.2 1 .3.4.1.7.1 1.1.1.8 0 1.4-.2 1.8-.5.4-.4.6-.9.6-1.6 0-.4-.1-.8-.3-1.1-.2-.3-.4-.6-.7-.8-.3-.2-.8-.5-1.4-.8-.6-.3-1-.5-1.1-.6-.6-.3-1.1-.7-1.4-1.2-.4-.5-.5-1-.5-1.8 0-.5.1-.9.3-1.3s.4-.7.7-.9c.3-.3.7-.5 1.2-.6s1-.2 1.5-.2c.8.2 1.7.3 2.6.5zM47.5 87.5v1.3c-.4.2-.8.4-1.3.6s-1 .2-1.6.2c-1.2 0-2.1-.3-2.8-.9s-1.2-1.4-1.5-2.3c-.3-1-.5-2-.5-3.1 0-.6.1-1.3.2-2s.4-1.3.7-1.9a4 4 0 0 1 3.6-2.1c.6 0 1.1.1 1.6.3.5.2.9.4 1.2.7s.6.7.7 1.1c.2.4.2.9.2 1.3h-1.7c0-.7-.2-1.3-.5-1.8s-.9-.8-1.7-.8c-.7 0-1.3.3-1.7.8-.4.5-.7 1.1-.8 1.9-.1.7-.2 1.4-.2 2.2 0 1.6.3 2.9.8 4s1.4 1.6 2.6 1.6c.3 0 .7 0 .9-.1.3-.1.5-.2.7-.3.2-.1.4-.2.6-.4s.4-.2.5-.3zM57.4 77.5V85c0 .6 0 1.2-.1 1.7s-.2 1-.4 1.4c-.2.5-.6.8-1.2 1.1-.6.3-1.3.4-2.2.4-1.2 0-2.1-.2-2.6-.7-.6-.5-.9-1-1.1-1.7s-.2-1.4-.2-2.3v-7.4H51v8.8c0 .4.1.8.3 1.1s.4.7.8.9c.3.2.8.4 1.4.4.7 0 1.3-.2 1.7-.6s.6-.8.7-1.3c.1-.5.1-1.1.1-1.9v-7.4h1.4zM60.2 89.4V77.5h5.7v1h-4.3v4.2h4.1v1h-4.1v4.7h4.5v1h-5.9zM68.2 89.4V77.5h1.4v10.9h4.2v1h-5.6zM73.9 89.4l4-11.9h1.6l4 11.9H82l-1.2-3.8h-4.4l-1.2 3.8h-1.3zm4.7-10.5l-1.9 5.9h3.8l-1.9-5.9zM90.9 89.4v-11h-2.8v-1h7v1h-2.8v11h-1.4zM96.6 89.4V77.5h5.7v1H98v4.2h4.1v1H98v4.7h4.5v1h-5.9zM111.7 87.5v1.3c-.4.2-.8.4-1.3.6s-1 .2-1.6.2c-1.2 0-2.1-.3-2.8-.9s-1.2-1.4-1.5-2.3c-.3-1-.5-2-.5-3.1 0-.6.1-1.3.2-2s.4-1.3.7-1.9a4 4 0 0 1 3.6-2.1c.6 0 1.1.1 1.6.3.5.2.9.4 1.2.7s.6.7.7 1.1c.2.4.2.9.2 1.3h-1.7c0-.7-.2-1.3-.5-1.8s-.9-.8-1.7-.8c-.7 0-1.3.3-1.7.8-.4.5-.7 1.1-.8 1.9-.1.7-.2 1.4-.2 2.2 0 1.6.3 2.9.8 4s1.4 1.6 2.6 1.6c.3 0 .7 0 .9-.1.3-.1.5-.2.7-.3.2-.1.4-.2.6-.4s.4-.2.5-.3zM113.9 89.4V77.5h1.7l4.9 10.1V77.5h1.3v11.9h-1.7l-4.9-10.2v10.2h-1.3zM124.8 89.4V77.5h1.4v11.9h-1.4zM136.3 87.5v1.3c-.4.2-.8.4-1.3.6s-1 .2-1.6.2c-1.2 0-2.1-.3-2.8-.9s-1.2-1.4-1.5-2.3c-.3-1-.5-2-.5-3.1 0-.6.1-1.3.2-2s.4-1.3.7-1.9a4 4 0 0 1 3.6-2.1c.6 0 1.1.1 1.6.3.5.2.9.4 1.2.7s.6.7.7 1.1c.2.4.2.9.2 1.3h-1.7c0-.7-.2-1.3-.5-1.8s-.9-.8-1.7-.8c-.7 0-1.3.3-1.7.8-.4.5-.7 1.1-.8 1.9-.1.7-.2 1.4-.2 2.2 0 1.6.3 2.9.8 4s1.4 1.6 2.6 1.6c.3 0 .7 0 .9-.1.3-.1.5-.2.7-.3.2-.1.4-.2.6-.4s.4-.2.5-.3zM137.1 89.4l4-11.9h1.6l4 11.9h-1.5l-1.2-3.8h-4.4l-1.2 3.8h-1.3zm4.7-10.5l-1.9 5.9h3.8l-1.9-5.9zM158.3 77.6V79c-1-.5-2-.7-2.8-.7-.6 0-1.1.2-1.5.5s-.6.7-.6 1.3c0 .4.1.7.3 1 .2.3.5.5.8.7s.7.4 1.3.7 1 .6 1.3.7c.5.4.9.6 1.1.9s.4.5.6.8c.1.3.2.7.2 1.3 0 .8-.2 1.4-.6 1.9-.4.5-.9.9-1.5 1.1-.6.2-1.4.4-2.1.4-1 0-1.9-.1-2.8-.4v-1.5c.3.1.6.3.9.4.3.1.6.2 1 .3.4.1.7.1 1.1.1.8 0 1.4-.2 1.8-.5.4-.4.6-.9.6-1.6 0-.4-.1-.8-.3-1.1-.2-.3-.4-.6-.7-.8-.3-.2-.8-.5-1.4-.8-.6-.3-1-.5-1.1-.6-.6-.3-1.1-.7-1.4-1.2-.4-.5-.5-1-.5-1.8 0-.5.1-.9.3-1.3s.4-.7.7-.9c.3-.3.7-.5 1.2-.6s1-.2 1.5-.2c.8.2 1.7.3 2.6.5zM168.8 77.5V85c0 .6 0 1.2-.1 1.7s-.2 1-.4 1.4c-.2.5-.6.8-1.2 1.1-.6.3-1.3.4-2.2.4-1.2 0-2.1-.2-2.6-.7-.6-.5-.9-1-1.1-1.7s-.2-1.4-.2-2.2v-7.4h1.4v8.8c0 .4.1.8.3 1.1s.4.7.8.9c.3.2.8.4 1.4.4.7 0 1.3-.2 1.7-.6s.6-.8.7-1.3c.1-.5.1-1.1.1-1.9v-7.4h1.4zM171.7 89.4V77.5h2.5c.8 0 1.5.1 2.1.3s1.2.5 1.6 1c.4.5.6 1.2.6 2 0 .9-.2 1.6-.6 2.1-.4.5-.9.8-1.6 1-.6.2-1.3.2-2.1.2h-1.1v5.4h-1.4zm1.4-10.9v4.6h1.1c.5 0 1-.1 1.4-.2.4-.1.7-.3 1-.7s.4-.8.4-1.5c0-1.5-.9-2.3-2.8-2.3h-1.1zM180.3 89.4V77.5h5.7v1h-4.3v4.2h4.1v1h-4.1v4.7h4.5v1h-5.9zM188.3 89.4V77.5h2.6c1.2 0 2.2.2 3 .7.8.5 1.2 1.3 1.2 2.5 0 .6-.1 1.1-.4 1.5-.3.4-.7.7-1.1.9-.4.2-.8.3-1.2.4.6.1 1 .3 1.3.5s.5.5.6.9c.1.3.2.8.4 1.5l.6 3h-1.5l-.5-2.4c-.2-.8-.3-1.4-.5-1.8s-.5-.7-.8-.9c-.4-.2-.9-.3-1.6-.3h-.7v5.4h-1.4zm1.4-10.9v4.6h.8c.7 0 1.4-.2 2.1-.5.6-.4.9-1 .9-1.9 0-.9-.3-1.4-.8-1.7-.5-.3-1.1-.5-1.8-.5h-1.2zM197.6 89.4V77.5h1.4v11.9h-1.4zM205.9 89.6c-1 0-1.9-.3-2.5-.8-.7-.6-1.2-1.3-1.5-2.2a9.43 9.43 0 0 1 0-6.1c.3-.9.8-1.7 1.5-2.3.7-.6 1.5-.8 2.5-.8s1.9.3 2.5.8c.6.6 1.1 1.3 1.4 2.3.3.9.4 2 .4 3.1s-.1 2.1-.4 3c-.3.9-.7 1.6-1.4 2.2-.7.6-1.5.8-2.5.8zm-2.9-5.9c0 .6 0 1.2.1 1.8.1.6.2 1.1.4 1.6s.5.9.9 1.2.8.5 1.4.5c.7 0 1.3-.3 1.8-.8.4-.5.7-1.1.9-1.9s.2-1.5.2-2.4c0-1-.1-1.9-.2-2.7-.2-.8-.5-1.5-.9-2s-1-.8-1.8-.8c-.7 0-1.3.3-1.7.8-.4.5-.7 1.2-.9 2s-.2 1.7-.2 2.7zM212.5 89.4V77.5h2.6c1.2 0 2.2.2 3 .7.8.5 1.2 1.3 1.2 2.5 0 .6-.1 1.1-.4 1.5-.3.4-.7.7-1.1.9-.4.2-.8.3-1.2.4.6.1 1 .3 1.3.5s.5.5.6.9c.1.3.2.8.4 1.5l.6 3H218l-.5-2.4c-.2-.8-.3-1.4-.5-1.8s-.5-.7-.8-.9c-.4-.2-.9-.3-1.6-.3h-.6v5.4h-1.5zm1.5-10.9v4.6h.8c.7 0 1.4-.2 2.1-.5.6-.4.9-1 .9-1.9 0-.9-.3-1.4-.8-1.7-.5-.3-1.1-.5-1.8-.5H214zM226.3 89.4V77.5h2.2c1 0 1.8.1 2.5.3.7.2 1.3.5 1.8 1s.8 1 1.1 1.8.4 1.7.4 2.8c0 1.2-.1 2.3-.4 3.1-.3.8-.7 1.4-1.2 1.8-.5.4-1.1.7-1.8.9-.7.2-1.6.2-2.5.2h-2.1zm1.4-10.9v9.9h.9c.7 0 1.4-.1 1.9-.3.5-.2.9-.5 1.2-.9.3-.4.5-.9.7-1.5.1-.6.2-1.3.2-2.2 0-1-.1-1.9-.2-2.6-.2-.7-.4-1.2-.7-1.6-.3-.4-.7-.6-1.2-.8-.5-.1-1.1-.2-1.8-.2h-1zM236.5 89.4V77.5h5.7v1h-4.3v4.2h4.1v1h-4.1v4.7h4.5v1h-5.9zM249 89.4V77.5h1.4v11.9H249zM253.4 89.4V77.5h1.7l4.9 10.1V77.5h1.3v11.9h-1.7l-4.9-10.2v10.2h-1.3zM272.1 82.7v5.7c-.4.4-.9.6-1.5.9-.6.2-1.3.3-2.1.3-.9 0-1.6-.2-2.2-.5-.6-.3-1.1-.7-1.5-1.3-.4-.6-.7-1.2-.9-2-.2-.8-.3-1.6-.3-2.6 0-1.1.1-2.1.4-3 .3-.9.8-1.6 1.4-2.2.7-.5 1.6-.8 2.7-.8.8 0 1.4.1 2 .3.5.2.9.5 1.2.9.3.4.5.7.6 1.1s.2.7.2 1.1h-1.6c0-.4-.1-.9-.2-1.2-.2-.4-.4-.7-.8-.9-.4-.2-.8-.3-1.4-.3-.8 0-1.4.2-1.8.7-.4.5-.8 1.1-.9 1.9-.2.8-.3 1.5-.3 2.4 0 .7.1 1.4.2 2 .1.7.3 1.2.5 1.8.3.5.6.9 1.1 1.2s1 .5 1.7.5c.8 0 1.5-.3 2-.8v-4.2H268v-1h4.1zM274.8 89.4V77.5h5.7v1h-4.3v4.2h4.1v1h-4.1v4.7h4.5v1h-5.9zM282.8 89.4V77.5h1.7l4.9 10.1V77.5h1.3v11.9H289l-4.9-10.2v10.2h-1.3zM293.7 89.4V77.5h1.4v11.9h-1.4zM298.1 89.4V77.5h5.7v1h-4.3v4.2h4.1v1h-4.1v4.7h4.5v1h-5.9zM306.1 89.4V77.5h2.6c1.2 0 2.2.2 3 .7.8.5 1.2 1.3 1.2 2.5 0 .6-.1 1.1-.4 1.5-.3.4-.7.7-1.1.9-.4.2-.8.3-1.2.4.6.1 1 .3 1.3.5s.5.5.6.9c.1.3.2.8.4 1.5l.6 3h-1.5l-.5-2.4c-.2-.8-.3-1.4-.5-1.8s-.5-.7-.8-.9c-.4-.2-.9-.3-1.6-.3h-.7v5.4h-1.4zm1.4-10.9v4.6h.8c.7 0 1.4-.2 2.1-.5.6-.4.9-1 .9-1.9 0-.9-.3-1.4-.8-1.7-.5-.3-1.1-.5-1.8-.5h-1.2zM319.2 89.6c-1 0-1.9-.3-2.5-.8-.7-.6-1.2-1.3-1.5-2.2a9.43 9.43 0 0 1 0-6.1c.3-.9.8-1.7 1.5-2.3.7-.6 1.5-.8 2.5-.8s1.9.3 2.5.8c.6.6 1.1 1.3 1.4 2.3.3.9.4 2 .4 3.1s-.1 2.1-.4 3c-.3.9-.7 1.6-1.4 2.2-.6.6-1.5.8-2.5.8zm-2.9-5.9c0 .6 0 1.2.1 1.8.1.6.2 1.1.4 1.6s.5.9.9 1.2.8.5 1.4.5c.7 0 1.3-.3 1.8-.8.4-.5.7-1.1.9-1.9s.2-1.5.2-2.4c0-1-.1-1.9-.2-2.7-.2-.8-.5-1.5-.9-2s-1-.8-1.8-.8c-.7 0-1.3.3-1.7.8-.4.5-.7 1.2-.9 2s-.2 1.7-.2 2.7zM331.4 77.6V79c-1-.5-2-.7-2.8-.7-.6 0-1.1.2-1.5.5s-.6.7-.6 1.3c0 .4.1.7.3 1 .2.3.5.5.8.7s.7.4 1.3.7 1 .6 1.3.7c.5.4.9.6 1.1.9s.4.5.6.8c.1.3.2.7.2 1.3 0 .8-.2 1.4-.6 1.9-.4.5-.9.9-1.5 1.1-.6.2-1.4.4-2.1.4-1 0-1.9-.1-2.8-.4v-1.5c.3.1.6.3.9.4.3.1.6.2 1 .3.4.1.7.1 1.1.1.8 0 1.4-.2 1.8-.5.4-.4.6-.9.6-1.6 0-.4-.1-.8-.3-1.1-.2-.3-.4-.6-.7-.8-.3-.2-.8-.5-1.4-.8-.6-.3-1-.5-1.1-.6-.6-.3-1.1-.7-1.4-1.2-.4-.5-.5-1-.5-1.8 0-.5.1-.9.3-1.3s.4-.7.7-.9c.3-.3.7-.5 1.2-.6s1-.2 1.5-.2c.8.2 1.7.3 2.6.5zM338.7 89.4V77.5h2.2c1 0 1.8.1 2.5.3.7.2 1.3.5 1.8 1s.8 1 1.1 1.8.4 1.7.4 2.8c0 1.2-.1 2.3-.4 3.1-.3.8-.7 1.4-1.2 1.8-.5.4-1.1.7-1.8.9-.7.2-1.6.2-2.5.2h-2.1zm1.4-10.9v9.9h.9c.7 0 1.4-.1 1.9-.3.5-.2.9-.5 1.2-.9.3-.4.5-.9.7-1.5.1-.6.2-1.3.2-2.2 0-1-.1-1.9-.2-2.6-.2-.7-.4-1.2-.7-1.6-.3-.4-.7-.6-1.2-.8-.5-.1-1.1-.2-1.8-.2h-1zM348.9 89.4V77.5h5.7v1h-4.3v4.2h4.1v1h-4.1v4.7h4.5v1h-5.9zM362.6 89.4v-11h-2.8v-1h7v1H364v11h-1.4zM368.3 89.4V77.5h5.7v1h-4.3v4.2h4.1v1h-4.1v4.7h4.5v1h-5.9zM376.3 89.4V77.5h1.4v10.9h4.2v1h-5.6zM383.4 89.4V77.5h5.7v1h-4.3v4.2h4.1v1h-4.1v4.7h4.5v1h-5.9zM398.4 87.5v1.3c-.4.2-.8.4-1.3.6-.5.1-1 .2-1.6.2-1.2 0-2.1-.3-2.8-.9s-1.2-1.4-1.5-2.3-.5-2-.5-3.1c0-.6.1-1.3.2-2s.4-1.3.7-1.9a4 4 0 0 1 3.6-2.1c.6 0 1.1.1 1.6.3.5.2.9.4 1.2.7.3.3.6.7.7 1.1.2.4.2.9.2 1.3h-1.7c0-.7-.2-1.3-.5-1.8s-.9-.8-1.7-.8c-.7 0-1.3.3-1.7.8-.4.5-.7 1.1-.8 1.9-.1.7-.2 1.4-.2 2.2 0 1.6.3 2.9.8 4s1.4 1.6 2.6 1.6c.3 0 .7 0 .9-.1.3-.1.5-.2.7-.3.2-.1.4-.2.6-.4s.4-.2.5-.3zM404.5 89.6c-1 0-1.9-.3-2.5-.8-.7-.6-1.2-1.3-1.5-2.2a9.43 9.43 0 0 1 0-6.1c.3-.9.8-1.7 1.5-2.3.7-.6 1.5-.8 2.5-.8s1.9.3 2.5.8c.6.6 1.1 1.3 1.4 2.3.3.9.4 2 .4 3.1s-.1 2.1-.4 3c-.3.9-.7 1.6-1.4 2.2-.7.6-1.5.8-2.5.8zm-3-5.9c0 .6 0 1.2.1 1.8.1.6.2 1.1.4 1.6s.5.9.9 1.2.8.5 1.4.5c.7 0 1.3-.3 1.8-.8.4-.5.7-1.1.9-1.9.2-.8.2-1.5.2-2.4 0-1-.1-1.9-.2-2.7-.2-.8-.5-1.5-.9-2s-1-.8-1.8-.8c-.7 0-1.3.3-1.7.8-.4.5-.7 1.2-.9 2s-.2 1.7-.2 2.7zM411.1 89.4V77.5h2l3.4 10.2 3.3-10.2h2v11.9h-1.3V78.7L417 89.4h-1.2l-3.5-10.6v10.6h-1.2zM432.6 77.5V85c0 .6 0 1.2-.1 1.7s-.2 1-.5 1.4-.6.8-1.2 1.1c-.6.3-1.3.4-2.2.4-1.2 0-2.1-.2-2.6-.7-.6-.5-.9-1-1.1-1.7-.1-.6-.2-1.4-.2-2.3v-7.4h1.4v8.8c0 .4.1.8.3 1.1.2.4.4.7.8.9s.8.4 1.4.4c.7 0 1.3-.2 1.7-.6.4-.4.6-.8.7-1.3.1-.5.1-1.1.1-1.9v-7.4h1.5zM435.4 89.4V77.5h1.7l4.9 10.1V77.5h1.3v11.9h-1.7l-4.9-10.2v10.2h-1.3zM446.3 89.4V77.5h1.4v11.9h-1.4zM457.8 87.5v1.3c-.4.2-.8.4-1.3.6-.5.1-1 .2-1.6.2-1.2 0-2.1-.3-2.8-.9s-1.2-1.4-1.5-2.3-.5-2-.5-3.1c0-.6.1-1.3.2-2s.4-1.3.7-1.9a4 4 0 0 1 3.6-2.1c.6 0 1.1.1 1.6.3.5.2.9.4 1.2.7.3.3.6.7.7 1.1.2.4.2.9.2 1.3h-1.7c0-.7-.2-1.3-.5-1.8s-.9-.8-1.7-.8c-.7 0-1.3.3-1.7.8-.4.5-.7 1.1-.8 1.9-.1.7-.2 1.4-.2 2.2 0 1.6.3 2.9.8 4s1.4 1.6 2.6 1.6c.3 0 .7 0 .9-.1.3-.1.5-.2.7-.3.2-.1.4-.2.6-.4s.4-.2.5-.3zM458.7 89.4l4-11.9h1.6l4 11.9h-1.5l-1.2-3.8h-4.4l-1.2 3.8h-1.3zm4.6-10.5l-1.9 5.9h3.8l-1.9-5.9zM477 87.5v1.3c-.4.2-.8.4-1.3.6-.5.1-1 .2-1.6.2-1.2 0-2.1-.3-2.8-.9s-1.2-1.4-1.5-2.3-.5-2-.5-3.1c0-.6.1-1.3.2-2s.4-1.3.7-1.9a4 4 0 0 1 3.6-2.1c.6 0 1.1.1 1.6.3.5.2.9.4 1.2.7.3.3.6.7.7 1.1.2.4.2.9.2 1.3h-1.7c0-.7-.2-1.3-.5-1.8s-.9-.8-1.7-.8c-.7 0-1.3.3-1.7.8-.4.5-.7 1.1-.8 1.9-.1.7-.2 1.4-.2 2.2 0 1.6.3 2.9.8 4s1.4 1.6 2.6 1.6c.3 0 .7 0 .9-.1.3-.1.5-.2.7-.3.2-.1.4-.2.6-.4s.4-.2.5-.3zM479.2 89.4V77.5h1.4v11.9h-1.4zM487.5 89.6c-1 0-1.9-.3-2.5-.8-.7-.6-1.2-1.3-1.5-2.2a9.43 9.43 0 0 1 0-6.1c.3-.9.8-1.7 1.5-2.3.7-.6 1.5-.8 2.5-.8s1.9.3 2.5.8c.6.6 1.1 1.3 1.4 2.3.3.9.4 2 .4 3.1s-.1 2.1-.4 3c-.3.9-.7 1.6-1.4 2.2-.6.6-1.5.8-2.5.8zm-2.9-5.9c0 .6 0 1.2.1 1.8.1.6.2 1.1.4 1.6s.5.9.9 1.2.8.5 1.4.5c.7 0 1.3-.3 1.8-.8.4-.5.7-1.1.9-1.9.2-.8.2-1.5.2-2.4 0-1-.1-1.9-.2-2.7-.2-.8-.5-1.5-.9-2s-1-.8-1.8-.8c-.7 0-1.3.3-1.7.8-.4.5-.7 1.2-.9 2s-.2 1.7-.2 2.7zm2.1-7.6l.7-2.3h1.5l-1.2 2.3h-1zM494.2 89.4V77.5h1.7l4.9 10.1V77.5h1.3v11.9h-1.7l-4.9-10.2v10.2h-1.3z"/></g><path fill="#004990" d="M317.3 89.5V160c0 6.1-.3 11.4-.8 16-.6 4.6-2 9.1-4.3 13.4-2.3 4.3-6.1 7.9-11.3 10.7-5.3 2.8-12.3 4.2-21.1 4.2-11.3 0-19.6-2.3-25-6.9-5.4-4.6-8.7-9.9-10-16-1.3-6-1.9-13.2-1.9-21.5V89.5h13.6v70.2c0 5.2.1 9.6.4 13.2.3 3.6 1.2 7.2 2.7 10.9 1.5 3.6 3.9 6.6 7.2 8.8 3.3 2.2 7.8 3.3 13.4 3.3 7.1 0 12.4-1.8 15.9-5.5 3.5-3.6 5.6-7.9 6.4-12.8.8-4.9 1.2-10.9 1.2-17.9V89.5h13.6zM331.1 202.5v-113h24.1c7.3 0 14 .8 20 2.4 6.1 1.6 11.1 4.7 15.1 9.3 4 4.6 6 11 6 19.3 0 8.6-2 15.1-6 19.7s-9 7.7-14.9 9.2c-5.9 1.5-12.7 2.3-20.2 2.3h-10.5v50.7h-13.6zm13.6-103.9v43.7H355c5.1 0 9.5-.5 13.3-1.6 3.8-1.1 7-3.2 9.6-6.6 2.6-3.3 3.8-8 3.8-14.1 0-14.3-8.9-21.4-26.7-21.4h-10.3zM399.8 202.5v-113H419l32.2 96.9h.3l31.8-96.9h19.1v113h-12.6V101h-.3l-33.4 101.5h-11.8L411 101.6h-.3v100.9h-10.9z"/><defs><path id="a" d="M510 6.7h195.3v195.7H510z"/></defs><clipPath id="b"><use overflow="visible" xlink:href="#a"/></clipPath><path fill="none" stroke="#002B7F
 " stroke-width=".76" d="M611.9 182.8l1.6-2.1M568.7 150.5H637M643.1 150.6h2.2M639.1 146.2V88M643.1 85.8v64.8M641.1 85.8v60.9M643.1 85.8h-2M639.1 88l2.2-2.1M577.6 85.8v64.7M577.6 85.8h-2.1M573.6 87.8v62.7M575.5 85.8v64.7M573.6 87.8l2-2M550.2 87.9h121.6M548.5 90h122.7M545.9 94.2h122.2M544.7 96.3h124M575.5 92.1l-6.3 6.3m10.5-12.6l-10.5 10.5m6.3-4.2l4.2-4.2m-10.5 10.5v-2.1m10.5-8.4v-2.1M641.3 92.1l-6.3 6.3m10.5-12.6L635 96.3m6.3-4.2l4.2-4.2m-10.6 10.5v-2.1m10.6-8.4v-2.1M573.6 144.6l-4.9 5.9M577.6 139.9l24-28.6M601.6 111.3h12.2M608 150.5l-6.4-39.2M613.8 111.3l-5.8 39.2M601.6 111.3l10.6 10.7M613.8 111.3l-10.5 10.5M612.2 122h-8.9M603.3 121.8l7.8 7.7M612.2 122l-7.7 7.7M611.1 129.5h-6.6M601.6 111.3l6.5-40.4M613.8 111.3l-5.7-40.4M604.5 129.7l5.5 5.6M611.1 129.5l-5.6 5.6M610.3 135.2h-4.8M601.6 111.3l10.8-10.8M613.8 111.3l-10.7-10.6M605.5 135.1l4.2 4.1M610.3 135.2l-4.1 4.1M609.7 139.4h-3.5M603.1 100.7h9.2M606.2 139.3l3 3M609.7 139.4l-3 2.9M603.3 100.7l7.9-7.9M612.3 100.7l-7.8-7.8M611.2 92.8h-6.6M604.5 92.9l6-5.9M611.2 92.8l-5.7-5.8M610.4 87h-4.9M605.5 87l4.3-4.3M610.4 87l-4.2-4.2M609.9 82.6l-3.7.1M606.2 82.7l3.1-3.1M609.8 82.7l-3.1-3.1M639 140.8l-25.2-29.5M643.1 145.7l3.2 3.5" clip-path="url(#b)"/><g clip-path="url(#b)"><defs><path id="c" d="M510 6.7h195.3v195.7H510z"/></defs><clipPath id="d"><use overflow="visible" xlink:href="#c"/></clipPath><path fill="none" stroke="#002B7F
 " stroke-width=".76" d="M608.1 57.2c-8.6 0-16.4-1-21.9-2.7-.4-.1-.6-.5-.6-.9s.2-.7.6-.8c5.5-1.7 13.2-2.7 21.9-2.7 8.6 0 16.4 1 21.9 2.7.4.1.6.5.6.8 0 .4-.2.8-.6.9-5.6 1.7-13.3 2.7-21.9 2.7" clip-path="url(#d)"/><path fill="none" stroke="#002B7F
 " stroke-width=".76" d="M608.1 56.1c-7.8 0-14.8-.9-20.2-2.3 5.4-1.4 12.4-2.2 20.2-2.2 7.8 0 14.9.9 20.2 2.2-5.4 1.4-12.5 2.3-20.2 2.3zM588.8 54v-.4M608.1 46c-9.4 0-17.9 1.1-24 2.9-.4.1-.8 0-1-.4-.1-.4.1-.8.5-1 6.1-1.9 14.8-3.1 24.5-3.1s18.4 1.2 24.5 3.1c.4.1.6.6.5 1-.1.4-.6.5-1 .4-6.1-1.7-14.6-2.8-24-2.9" clip-path="url(#d)"/><path fill="none" stroke="#002B7F
 " stroke-width=".76" d="M601.3 48.2c0-.4.3-.7.8-.7.4 0 .8.3.8.7 0 .4-.3.7-.8.7-.4 0-.8-.3-.8-.7M608.1 48.8h-2.3c-.4 0-.8-.3-.8-.7 0-.4.3-.7.8-.7h4.7c.4 0 .8.3.8.7 0 .4-.4.7-.8.7h-2.4M596.5 49.4l-1.7.2c-.4.1-.8-.2-.9-.6-.1-.4.2-.8.7-.8l1.7-.2 1.7-.2c.4 0 .8.2.9.6.1.4-.3.8-.7.8l-1.7.2M589.7 49.5c0-.4.3-.7.8-.7.4 0 .8.3.8.7 0 .4-.3.7-.8.7-.5.1-.8-.3-.8-.7M585.3 49.8l.1-.1 2.4.3-1.8 1.3M585.3 49.8l-.7 1.1 1.3.5.1-.1M619.7 49.4l1.7.2c.4.1.8-.2.9-.6 0-.4-.2-.8-.7-.8l-1.7-.2-1.7-.2c-.4 0-.8.2-.9.6-.1.4.3.8.7.8l1.7.2M613.3 48.2c0-.4.3-.7.8-.7.4 0 .8.3.8.7 0 .4-.3.7-.8.7s-.8-.3-.8-.7M624.9 49.5c0-.4.3-.7.8-.7.4 0 .8.3.8.7 0 .4-.3.7-.8.7-.4.1-.8-.3-.8-.7M586 51.3c.3 1 .3 1.4-.1 1.6 5.5-1.7 13.4-2.8 22.1-2.8 8.7 0 16.7 1.1 22.2 2.8-.4-.2-.4-.6-.1-1.6" clip-path="url(#d)"/><path fill="none" stroke="#002B7F
 " stroke-width=".76" d="M630.8 49.9c.6-.9 1.3-.9 1.3-.9-6.1-1.8-14.7-2.9-24.1-2.9-9.4 0-17.9 1.1-24 2.9 0 0 .7 0 1.3.9M630.8 49.9l.8 1-1.3.5h-.1" clip-path="url(#d)"/><path fill="none" stroke="#002B7F
 " stroke-width=".76" d="M630.8 49.9l-.1-.2-2.3.3 1.8 1.4M608.1 56.1c-7.8 0-14.8-.9-20.2-2.3 5.4-1.4 12.4-2.2 20.2-2.2 7.8 0 14.9.9 20.2 2.2-5.4 1.4-12.5 2.3-20.2 2.3M586.9 54c5.5-1.5 12.9-2.5 21.1-2.5 8.2 0 15.7 1 21.1 2.5M576.2 25.1c-1.3.8-2.4 1.9-2.9 3-.4.8-.6 1.8-.6 2.8 0 1.6.6 3.1 1.7 4.3l-1.1 1.8c-1.1-1.4-1.7-3-1.7-4.7-.1-2.9 1.8-5.5 4.6-7.2" clip-path="url(#d)"/><path fill="none" stroke="#002B7F
 " stroke-width=".76" d="M576.2 25.1c-1.3.8-2.4 1.9-2.9 3-.4.8-.6 1.8-.6 2.8 0 1.6.6 3.1 1.7 4.3l-1.1 1.8c-1.1-1.4-1.7-3-1.7-4.7-.1-2.9 1.8-5.5 4.6-7.2zM639.7 25.1c1.3.8 2.4 1.9 2.9 3 .4.8.6 1.8.6 2.8 0 1.6-.6 3.1-1.7 4.3l1.1 1.8c1.1-1.4 1.7-3 1.7-4.7.1-2.9-1.7-5.5-4.6-7.2" clip-path="url(#d)"/><path fill="none" stroke="#002B7F
 " stroke-width=".76" d="M639.7 25.1c1.3.8 2.4 1.9 2.9 3 .4.8.6 1.8.6 2.8 0 1.6-.6 3.1-1.7 4.3l1.1 1.8c1.1-1.4 1.7-3 1.7-4.7.1-2.9-1.7-5.5-4.6-7.2zM606.7 28.5c0-.7.6-1.3 1.3-1.3s1.3.6 1.3 1.3c0 .7-.6 1.3-1.3 1.3s-1.3-.6-1.3-1.3M606.9 25.8c0-.6.5-1 1.1-1 .6 0 1.1.5 1.1 1 0 .6-.5 1-1.1 1-.6.1-1.1-.4-1.1-1M607.2 23.4c0-.4.3-.7.8-.7.4 0 .8.3.8.7 0 .4-.3.7-.8.7-.4.1-.8-.3-.8-.7M607.4 21.3c0-.3.3-.6.6-.6s.6.3.6.6-.3.6-.6.6-.6-.2-.6-.6M625.4 38.4c.2-.2.5-.5.7-.9.4-.6.7-1.3.8-1.5.1-.2.5-.8.5-.8s-.3-.1-.8 0-.6.2-.6.2c.1-.9-.2-1.8-.7-2.5-.7.5-1.4 1.3-1.6 2.1 0 0-.1-.2-.5-.4s-.8-.2-.8-.2.1.7.2.9c.1.2.1 1 .2 1.6.1.4.3.8.4 1 .3-.2.6-.3.9-.3.6.1 1.1.4 1.3.8zM623.2 38.1s0-.1-.1-.1c.1 0 .1 0 .1.1 0-.1 0 0 0 0zM630.7 40.2a3.6 3.6 0 0 0-2.1-1.5s.2-.2.3-.5c.2-.3.2-.4.2-.4h-.8c-.3 0-1.2 0-1.7.1s-.9.3-1.1.4c.1.2.2.4.2.7 0 .4-.2.8-.5 1.1.2.2.5.5.9.8.4.3 1.3.6 1.5.7.2.1.7.3.7.3v-.4c-.1-.4-.1-.6-.1-.6.8.1 1.8-.2 2.5-.7z" clip-path="url(#d)"/><path fill="none" stroke="#002B7F
 " stroke-width=".76" d="M623.2 38c-.2-.2-.5-.5-.9-.7-.4-.3-1.3-.6-1.5-.7-.3-.1-.7-.3-.7-.3v.4c.1.4.1.6.1.6-.9-.1-1.8.2-2.5.7.5.7 1.2 1.3 2.1 1.5 0 0-.2.2-.3.5-.2.3-.2.4-.2.4h.8c.3 0 1.2 0 1.7-.1s.9-.3 1.1-.4c-.1-.2-.2-.5-.2-.7-.1-.5.1-.9.5-1.2zM576.5 42.3c.4-.4 1.1-.3 1.7.2.6.5.7 1.2.4 1.5-.4.4-1.1.3-1.7-.2-.6-.4-.7-1.1-.4-1.5M604.9 15.8c0-1.6 1.4-3 3.1-3 1.7 0 3.1 1.3 3.1 3 0 1.6-1.4 2.9-3.1 2.9-1.7 0-3.1-1.3-3.1-2.9" clip-path="url(#d)"/><path fill="none" stroke="#002B7F
 " stroke-width=".76" d="M607.2 7.5v1.6h-1.7v1.6h1.7v4.6H605c0 .2-.2.3-.2.4 0 .4.1.8.2 1.2h5.7c.2-.4.2-.7.2-1.2 0-.2-.1-.3-.2-.4h-2.1v-4.5h1.7V9.1h-1.7V7.5h-1.4zM643.1 37.9c0-.4.3-.7.8-.7.4 0 .8.3.8.7 0 .4-.3.7-.8.7-.4 0-.8-.3-.8-.7" clip-path="url(#d)"/><ellipse cx="643.9" cy="37.9" fill="none" stroke="#002B7F
 " stroke-width=".76" clip-path="url(#d)" rx=".8" ry=".7"/><path fill="none" stroke="#002B7F
 " stroke-width=".76" d="M644.2 36c0-.4.3-.7.8-.7.4 0 .8.3.8.7 0 .4-.3.7-.8.7s-.8-.3-.8-.7" clip-path="url(#d)"/><ellipse cx="645" cy="36" fill="none" stroke="#002B7F
 " stroke-width=".76" clip-path="url(#d)" rx=".8" ry=".7"/><path fill="none" stroke="#002B7F
 " stroke-width=".76" d="M644.9 33.8c0-.4.3-.7.8-.7.4 0 .8.3.8.7 0 .4-.3.7-.8.7-.4.1-.8-.3-.8-.7" clip-path="url(#d)"/><ellipse cx="645.7" cy="33.8" fill="none" stroke="#002B7F
 " stroke-width=".76" clip-path="url(#d)" rx=".8" ry=".7"/><path fill="none" stroke="#002B7F
 " stroke-width=".76" d="M645 31.5c0-.4.3-.7.8-.7.4 0 .8.3.8.7 0 .4-.3.7-.8.7s-.8-.3-.8-.7" clip-path="url(#d)"/><ellipse cx="645.8" cy="31.5" fill="none" stroke="#002B7F
 " stroke-width=".76" clip-path="url(#d)" rx=".8" ry=".7"/><path fill="none" stroke="#002B7F
 " stroke-width=".76" d="M644.4 29.2c0-.4.3-.7.8-.7.4 0 .8.3.8.7 0 .4-.3.7-.8.7-.4.1-.8-.3-.8-.7" clip-path="url(#d)"/><ellipse cx="645.2" cy="29.2" fill="none" stroke="#002B7F
 " stroke-width=".76" clip-path="url(#d)" rx=".8" ry=".7"/><path fill="none" stroke="#002B7F
 " stroke-width=".76" d="M643.2 27.1c0-.4.3-.7.8-.7.4 0 .8.3.8.7 0 .4-.3.7-.8.7-.4.1-.8-.2-.8-.7" clip-path="url(#d)"/><ellipse cx="644" cy="27.1" fill="none" stroke="#002B7F
 " stroke-width=".76" clip-path="url(#d)" rx=".8" ry=".7"/><path fill="none" stroke="#002B7F
 " stroke-width=".76" d="M641.7 25.4c0-.4.3-.7.8-.7.4 0 .8.3.8.7 0 .4-.3.7-.8.7-.5.1-.8-.3-.8-.7" clip-path="url(#d)"/><ellipse cx="642.4" cy="25.4" fill="none" stroke="#002B7F
 " stroke-width=".76" clip-path="url(#d)" rx=".8" ry=".7"/><path fill="none" stroke="#002B7F
 " stroke-width=".76" d="M639.8 24c0-.4.3-.7.8-.7.4 0 .8.3.8.7 0 .4-.3.7-.8.7-.4.1-.8-.3-.8-.7" clip-path="url(#d)"/><ellipse cx="640.6" cy="24" fill="none" stroke="#002B7F
 " stroke-width=".76" clip-path="url(#d)" rx=".8" ry=".7"/><path fill="none" stroke="#002B7F
 " stroke-width=".76" d="M637.6 22.9c0-.4.3-.7.8-.7.4 0 .8.3.8.7 0 .4-.3.7-.8.7-.4 0-.8-.3-.8-.7" clip-path="url(#d)"/><ellipse cx="638.4" cy="22.9" fill="none" stroke="#002B7F
 " stroke-width=".76" clip-path="url(#d)" rx=".8" ry=".7"/><path fill="none" stroke="#002B7F
 " stroke-width=".76" d="M635.3 22c0-.4.3-.7.8-.7.4 0 .8.3.8.7 0 .4-.3.7-.8.7-.4.1-.8-.3-.8-.7" clip-path="url(#d)"/><ellipse cx="636.1" cy="22" fill="none" stroke="#002B7F
 " stroke-width=".76" clip-path="url(#d)" rx=".8" ry=".7"/><path fill="none" stroke="#002B7F
 " stroke-width=".76" d="M632.8 21.6c0-.4.3-.7.8-.7.4 0 .8.3.8.7 0 .4-.3.7-.8.7s-.8-.3-.8-.7" clip-path="url(#d)"/><ellipse cx="633.6" cy="21.6" fill="none" stroke="#002B7F
 " stroke-width=".76" clip-path="url(#d)" rx=".8" ry=".7"/><path fill="none" stroke="#002B7F
 " stroke-width=".76" d="M630.4 21.5c0-.4.3-.7.8-.7.4 0 .8.3.8.7 0 .4-.3.7-.8.7s-.8-.3-.8-.7" clip-path="url(#d)"/><ellipse cx="631.1" cy="21.5" fill="none" stroke="#002B7F
 " stroke-width=".76" clip-path="url(#d)" rx=".8" ry=".7"/><path fill="none" stroke="#002B7F
 " stroke-width=".76" d="M628 21.5c0-.4.3-.7.8-.7.4 0 .8.3.8.7 0 .4-.3.7-.8.7-.5.1-.8-.3-.8-.7" clip-path="url(#d)"/><ellipse cx="628.8" cy="21.5" fill="none" stroke="#002B7F
 " stroke-width=".76" clip-path="url(#d)" rx=".8" ry=".7"/><path fill="none" stroke="#002B7F
 " stroke-width=".76" d="M625.6 21.5c0-.4.3-.7.8-.7.4 0 .8.3.8.7 0 .4-.3.7-.8.7-.4.1-.8-.3-.8-.7" clip-path="url(#d)"/><ellipse cx="626.4" cy="21.5" fill="none" stroke="#002B7F
 " stroke-width=".76" clip-path="url(#d)" rx=".8" ry=".7"/><path fill="none" stroke="#002B7F
 " stroke-width=".76" d="M641.6 35.2l1.3 2-1 .8-1.9-3c1.2-1 2-2.5 2-4.1 0-.8-.2-1.6-.5-2.3-1.2-2.6-5.5-4.6-10.6-4.6-1 0-2 .1-2.9.2" clip-path="url(#d)"/><path fill="none" stroke="#002B7F
 " stroke-width=".76" d="M641.6 35.2c1-1.2 1.7-2.7 1.7-4.3 0-1-.2-1.9-.6-2.8-1.5-3.1-6.2-5.3-11.8-5.3-1 0-1.9.1-2.8.2M627.4 24.3h-.1v-.1M627 23.2c-.1 0-.3.1-.4.1l.3.3M627 23.2c.1-.2.4-.3.6-.3.2 0 .3.1.4.1M627 23.2c-.1.1-.1.3-.1.4M628 24.2c-.1.1-.2.1-.4.1h-.1M628 23c.2.1.3.3.3.6s-.2.5-.4.6M627.3 24.2c-.3-.1-.4-.3-.4-.6M627.4 24.3h-.2M627.3 25.8c0-.4.3-.7.8-.7.4 0 .8.3.8.7 0 .4-.3.7-.8.7-.5.1-.8-.3-.8-.7M627.4 28.1c0-.4.3-.7.8-.7.4 0 .8.3.8.7 0 .4-.3.7-.8.7s-.8-.3-.8-.7M625.4 32c0-.4.3-.7.8-.7.4 0 .8.3.8.7 0 .4-.3.7-.8.7s-.8-.3-.8-.7M623.8 20.1c0-.4.3-.7.8-.7.4 0 .8.3.8.7 0 .4-.3.7-.8.7-.4.1-.8-.3-.8-.7" clip-path="url(#d)"/><ellipse cx="624.6" cy="20.1" fill="none" stroke="#002B7F
 " stroke-width=".76" clip-path="url(#d)" rx=".8" ry=".7"/><path fill="none" stroke="#002B7F
 " stroke-width=".76" d="M621.7 19c0-.4.3-.7.8-.7.4 0 .8.3.8.7 0 .4-.3.7-.8.7-.4 0-.8-.3-.8-.7" clip-path="url(#d)"/><ellipse cx="622.5" cy="19" fill="none" stroke="#002B7F
 " stroke-width=".76" clip-path="url(#d)" rx=".8" ry=".7"/><path fill="none" stroke="#002B7F
 " stroke-width=".76" d="M619.4 18.3c0-.4.3-.7.8-.7.4 0 .8.3.8.7 0 .4-.3.7-.8.7s-.8-.3-.8-.7" clip-path="url(#d)"/><ellipse cx="620.2" cy="18.3" fill="none" stroke="#002B7F
 " stroke-width=".76" clip-path="url(#d)" rx=".8" ry=".7"/><path fill="none" stroke="#002B7F
 " stroke-width=".76" d="M617 17.8c0-.4.3-.7.8-.7.4 0 .8.3.8.7 0 .4-.3.7-.8.7-.5.1-.8-.2-.8-.7" clip-path="url(#d)"/><ellipse cx="617.8" cy="17.8" fill="none" stroke="#002B7F
 " stroke-width=".76" clip-path="url(#d)" rx=".8" ry=".7"/><path fill="none" stroke="#002B7F
 " stroke-width=".76" d="M614.6 17.9c0-.4.3-.7.8-.7.4 0 .8.3.8.7 0 .4-.3.7-.8.7-.4 0-.8-.3-.8-.7" clip-path="url(#d)"/><ellipse cx="615.4" cy="17.9" fill="none" stroke="#002B7F
 " stroke-width=".76" clip-path="url(#d)" rx=".8" ry=".7"/><path fill="none" stroke="#002B7F
 " stroke-width=".76" d="M612.2 18.3c0-.4.3-.7.8-.7.4 0 .8.3.8.7 0 .4-.3.7-.8.7s-.8-.3-.8-.7" clip-path="url(#d)"/><ellipse cx="612.9" cy="18.3" fill="none" stroke="#002B7F
 " stroke-width=".76" clip-path="url(#d)" rx=".8" ry=".7"/><path fill="none" stroke="#002B7F
 " stroke-width=".76" d="M609.9 19.1c0-.4.3-.7.8-.7.4 0 .8.3.8.7 0 .4-.3.7-.8.7s-.8-.3-.8-.7" clip-path="url(#d)"/><ellipse cx="610.6" cy="19.1" fill="none" stroke="#002B7F
 " stroke-width=".76" clip-path="url(#d)" rx=".8" ry=".7"/><path fill="none" stroke="#002B7F
 " stroke-width=".76" d="M571.3 37.9c0-.4.3-.7.8-.7.4 0 .8.3.8.7 0 .4-.3.7-.8.7s-.8-.3-.8-.7" clip-path="url(#d)"/><ellipse cx="572" cy="37.9" fill="none" stroke="#002B7F
 " stroke-width=".76" clip-path="url(#d)" rx=".8" ry=".7"/><path fill="none" stroke="#002B7F
 " stroke-width=".76" d="M570.2 36c0-.4.3-.7.8-.7.4 0 .8.3.8.7 0 .4-.3.7-.8.7-.4 0-.8-.3-.8-.7" clip-path="url(#d)"/><ellipse cx="571" cy="36" fill="none" stroke="#002B7F
 " stroke-width=".76" clip-path="url(#d)" rx=".8" ry=".7"/><path fill="none" stroke="#002B7F
 " stroke-width=".76" d="M569.5 33.8c0-.4.3-.7.8-.7.4 0 .8.3.8.7 0 .4-.3.7-.8.7-.4.1-.8-.3-.8-.7" clip-path="url(#d)"/><ellipse cx="570.3" cy="33.8" fill="none" stroke="#002B7F
 " stroke-width=".76" clip-path="url(#d)" rx=".8" ry=".7"/><path fill="none" stroke="#002B7F
 " stroke-width=".76" d="M569.4 31.5c0-.4.3-.7.8-.7.4 0 .8.3.8.7 0 .4-.3.7-.8.7-.4 0-.8-.3-.8-.7" clip-path="url(#d)"/><ellipse cx="570.2" cy="31.5" fill="none" stroke="#002B7F
 " stroke-width=".76" clip-path="url(#d)" rx=".8" ry=".7"/><path fill="none" stroke="#002B7F
 " stroke-width=".76" d="M570 29.2c0-.4.3-.7.8-.7.4 0 .8.3.8.7 0 .4-.3.7-.8.7-.5.1-.8-.3-.8-.7" clip-path="url(#d)"/><ellipse cx="570.8" cy="29.2" fill="none" stroke="#002B7F
 " stroke-width=".76" clip-path="url(#d)" rx=".8" ry=".7"/><path fill="none" stroke="#002B7F
 " stroke-width=".76" d="M571.2 27.1c0-.4.3-.7.8-.7.4 0 .8.3.8.7 0 .4-.3.7-.8.7-.5.1-.8-.2-.8-.7" clip-path="url(#d)"/><ellipse cx="572" cy="27.1" fill="none" stroke="#002B7F
 " stroke-width=".76" clip-path="url(#d)" rx=".8" ry=".7"/><path fill="none" stroke="#002B7F
 " stroke-width=".76" d="M572.8 25.4c0-.4.3-.7.8-.7.4 0 .8.3.8.7 0 .4-.3.7-.8.7-.5.1-.8-.3-.8-.7" clip-path="url(#d)"/><ellipse cx="573.5" cy="25.4" fill="none" stroke="#002B7F
 " stroke-width=".76" clip-path="url(#d)" rx=".8" ry=".7"/><path fill="none" stroke="#002B7F
 " stroke-width=".76" d="M574.6 24c0-.4.3-.7.8-.7.4 0 .8.3.8.7 0 .4-.3.7-.8.7-.4.1-.8-.3-.8-.7" clip-path="url(#d)"/><ellipse cx="575.4" cy="24" fill="none" stroke="#002B7F
 " stroke-width=".76" clip-path="url(#d)" rx=".8" ry=".7"/><path fill="none" stroke="#002B7F
 " stroke-width=".76" d="M576.8 22.9c0-.4.3-.7.8-.7.4 0 .8.3.8.7 0 .4-.3.7-.8.7s-.8-.3-.8-.7" clip-path="url(#d)"/><ellipse cx="577.6" cy="22.9" fill="none" stroke="#002B7F
 " stroke-width=".76" clip-path="url(#d)" rx=".8" ry=".7"/><path fill="none" stroke="#002B7F
 " stroke-width=".76" d="M579.1 22c0-.4.3-.7.8-.7.4 0 .8.3.8.7 0 .4-.3.7-.8.7-.5.1-.8-.3-.8-.7" clip-path="url(#d)"/><ellipse cx="579.9" cy="22" fill="none" stroke="#002B7F
 " stroke-width=".76" clip-path="url(#d)" rx=".8" ry=".7"/><path fill="none" stroke="#002B7F
 " stroke-width=".76" d="M581.6 21.6c0-.4.3-.7.8-.7.4 0 .8.3.8.7 0 .4-.3.7-.8.7-.4 0-.8-.3-.8-.7" clip-path="url(#d)"/><ellipse cx="582.4" cy="21.6" fill="none" stroke="#002B7F
 " stroke-width=".76" clip-path="url(#d)" rx=".8" ry=".7"/><path fill="none" stroke="#002B7F
 " stroke-width=".76" d="M584 21.5c0-.4.3-.7.8-.7.4 0 .8.3.8.7 0 .4-.3.7-.8.7-.4 0-.8-.3-.8-.7" clip-path="url(#d)"/><ellipse cx="584.8" cy="21.5" fill="none" stroke="#002B7F
 " stroke-width=".76" clip-path="url(#d)" rx=".8" ry=".7"/><path fill="none" stroke="#002B7F
 " stroke-width=".76" d="M586.4 21.5c0-.4.3-.7.8-.7.4 0 .8.3.8.7 0 .4-.3.7-.8.7-.4.1-.8-.3-.8-.7" clip-path="url(#d)"/><ellipse cx="587.2" cy="21.5" fill="none" stroke="#002B7F
 " stroke-width=".76" clip-path="url(#d)" rx=".8" ry=".7"/><path fill="none" stroke="#002B7F
 " stroke-width=".76" d="M588.8 21.5c0-.4.3-.7.8-.7.4 0 .8.3.8.7 0 .4-.3.7-.8.7-.5.1-.8-.3-.8-.7" clip-path="url(#d)"/><ellipse cx="589.6" cy="21.5" fill="none" stroke="#002B7F
 " stroke-width=".76" clip-path="url(#d)" rx=".8" ry=".7"/><path fill="none" stroke="#002B7F
 " stroke-width=".76" d="M589.1 23.6l.3-.3c-.1 0-.3-.1-.4-.1M588.7 24.2c0 .1 0 .1 0 0-.1.1-.1.1-.2 0M574.3 35.2l-1.3 2 1 .8 1.9-3c-1.2-1-2-2.5-2-4.1 0-.8.2-1.6.5-2.3 1.2-2.7 5.5-4.7 10.6-4.7 1 0 2 .1 2.9.2" clip-path="url(#d)"/><path fill="none" stroke="#002B7F
 " stroke-width=".76" d="M587.9 23c-.9-.1-1.9-.2-2.8-.2-5.6 0-10.3 2.2-11.8 5.3-.4.8-.6 1.8-.6 2.8 0 1.6.6 3.1 1.7 4.3M588.7 24.2h-.2M589 23.2c.1.1.1.2.1.4M587.9 23c.1-.1.3-.1.4-.1.3 0 .5.1.6.3M588.5 24.3h-.2c-.1 0-.3 0-.4-.1" clip-path="url(#d)"/><path fill="none" stroke="#002B7F
 " stroke-width=".76" d="M587.9 23c-.2.1-.3.3-.3.6s.2.5.4.6M589.1 23.6c0 .3-.2.5-.4.6M587.1 25.8c0-.4.3-.7.8-.7.4 0 .8.3.8.7 0 .4-.3.7-.8.7-.4.1-.8-.3-.8-.7M587 28.1c0-.4.3-.7.8-.7.4 0 .8.3.8.7 0 .4-.3.7-.8.7-.4 0-.8-.3-.8-.7M605.2 22.1c0-.5.1-.9.2-1.3-.1.4-.2.8-.2 1.3zM610.6 20.8c.1.4.1.8.2 1.3-.1-.5-.1-.9-.2-1.3zM574.3 35.2c-.2-.2-.4-.5-.6-.8-.4.3-.7.6-1 .9l1 .9.6-1zM642.1 34.6c-.2.2-.3.4-.5.6l.5.8.8-.7c-.2-.2-.5-.5-.8-.7zM589.1 32c0-.4.3-.7.8-.7.4 0 .8.3.8.7 0 .4-.3.7-.8.7s-.8-.3-.8-.7M590.6 20.1c0-.4.3-.7.8-.7.4 0 .8.3.8.7 0 .4-.3.7-.8.7-.5.1-.8-.3-.8-.7" clip-path="url(#d)"/><ellipse cx="591.4" cy="20.1" fill="none" stroke="#002B7F
 " stroke-width=".76" clip-path="url(#d)" rx=".8" ry=".7"/><path fill="none" stroke="#002B7F
 " stroke-width=".76" d="M592.7 19c0-.4.3-.7.8-.7.4 0 .8.3.8.7 0 .4-.3.7-.8.7s-.8-.3-.8-.7" clip-path="url(#d)"/><ellipse cx="593.5" cy="19" fill="none" stroke="#002B7F
 " stroke-width=".76" clip-path="url(#d)" rx=".8" ry=".7"/><path fill="none" stroke="#002B7F
 " stroke-width=".76" d="M595 18.3c0-.4.3-.7.8-.7.4 0 .8.3.8.7 0 .4-.3.7-.8.7-.4 0-.8-.3-.8-.7" clip-path="url(#d)"/><ellipse cx="595.8" cy="18.3" fill="none" stroke="#002B7F
 " stroke-width=".76" clip-path="url(#d)" rx=".8" ry=".7"/><path fill="none" stroke="#002B7F
 " stroke-width=".76" d="M597.4 17.8c0-.4.3-.7.8-.7.4 0 .8.3.8.7 0 .4-.3.7-.8.7-.4.1-.8-.2-.8-.7" clip-path="url(#d)"/><ellipse cx="598.2" cy="17.8" fill="none" stroke="#002B7F
 " stroke-width=".76" clip-path="url(#d)" rx=".8" ry=".7"/><path fill="none" stroke="#002B7F
 " stroke-width=".76" d="M599.8 17.9c0-.4.3-.7.8-.7.4 0 .8.3.8.7 0 .4-.3.7-.8.7-.4 0-.8-.3-.8-.7" clip-path="url(#d)"/><ellipse cx="600.6" cy="17.9" fill="none" stroke="#002B7F
 " stroke-width=".76" clip-path="url(#d)" rx=".8" ry=".7"/><path fill="none" stroke="#002B7F
 " stroke-width=".76" d="M602.3 18.3c0-.4.3-.7.8-.7.4 0 .8.3.8.7 0 .4-.3.7-.8.7s-.8-.3-.8-.7" clip-path="url(#d)"/><ellipse cx="603" cy="18.3" fill="none" stroke="#002B7F
 " stroke-width=".76" clip-path="url(#d)" rx=".8" ry=".7"/><path fill="none" stroke="#002B7F
 " stroke-width=".76" d="M604.5 19.1c0-.4.3-.7.8-.7.4 0 .8.3.8.7 0 .4-.3.7-.8.7-.4 0-.8-.3-.8-.7" clip-path="url(#d)"/><ellipse cx="605.3" cy="19.1" fill="none" stroke="#002B7F
 " stroke-width=".76" clip-path="url(#d)" rx=".8" ry=".7"/><path fill="none" stroke="#002B7F
 " stroke-width=".76" d="M610.1 32.9c-.5.2-.6.4-.6.4-.1-1-.6-2-1.4-2.7-.7.7-1.3 1.7-1.3 2.7 0 0-.1-.2-.6-.4s-.9-.1-.9-.1.3.7.4 1c.1.3.3 1.1.6 1.8s.7 1.2.7 1.2c.3-.3.7-.5 1.2-.5s.9.2 1.2.5c0 0 .4-.5.7-1.2.3-.7.5-1.5.6-1.8.1-.3.4-1 .4-1s-.5-.1-1 .1zM638 42.5c.1-.1.3-.2.4-.3M638 42.5l-.3.3M637.7 42.9c0 .1 0 .1-.1.2M639.7 42.3c.4.4.2 1.1-.4 1.5-.5.4-1.1.5-1.5.3" clip-path="url(#d)"/><path fill="none" stroke="#002B7F
 " stroke-width=".76" d="M637.5 43.4c0 .2 0 .5.2.6.1.1.1.1.2.1M637.5 43.4c0-.1.1-.3.1-.4M637.2 43.3c-.3 0-.6.1-1 .1-.6 0-1.6-.1-1.9-.2-.3 0-.9-.1-.9-.1l.3-.3c.3-.3.6-.5.6-.5-.8-.3-1.5-1-1.8-1.6.8-.3 1.8-.5 2.7-.3v-.6-.4l1 .6c.5.2 1.4.7 1.7 1.2.4.5.6 1.1.6 1.1s-.5-1.6 0-2.7c.4-1.1 1.4-1.3 1.4-1.3l.2.8c.4-.4.9-.7 1.5-.8M638 42.5l-.3.3M637.6 43c0-.1 0-.1.1-.2M639.7 42.3c0 .1.1.1.1.2 0 0 .8-1.5 1.7-2 .9-.5 2.5-.4 2.5-.4 0-1.1-.9-2-2.1-2h-.2M638 42.5c.1-.1.3-.2.4-.3M638.4 42.2c.1-.1.3-.1.4-.1M639.7 42.3c-.2-.2-.5-.3-.8-.2M578.1 43.3l.6.5 3.6 2.9 1.8.1.2.6M609.3 32.9c-.1-.4-.2-.8-.4-1.2M607.2 31.8c-.2.4-.3.8-.4 1.2M609.3 31.4c0-.1.1-.2.1-.4 0-.7-.6-1.3-1.3-1.3-.7 0-1.3.6-1.3 1.3 0 .1 0 .3.1.4M606.7 31.4l.5.4M608.9 31.7l.4-.3" clip-path="url(#d)"/><path fill="none" stroke="#002B7F
 " stroke-width=".76" d="M609.3 31.4l1.2-1.1c-.5-1.3-.8-3.3-.9-5.7v-.4-.3c0-1.1-.1-2.2-.3-3.1-.1-.6-.7-1-1.3-1-.6 0-1.2.4-1.4 1-.2.9-.3 2-.3 3.1v.7c0 2.3-.4 4.4-.9 5.7l1.2 1.2" clip-path="url(#d)"/><path fill="none" stroke="#002B7F
 " stroke-width=".76" d="M608.9 31.7c-.2-.4-.5-.8-.9-1.1-.4.3-.7.7-.9 1.2M606.8 33c0 .1 0 .2-.1.3 0 0-.1-.2-.6-.4s-.9-.1-.9-.1.3.7.4 1c.1.3.3 1.1.6 1.8s.7 1.2.7 1.2c.3-.3.7-.5 1.2-.5s.9.2 1.2.5c0 0 .4-.5.7-1.2.3-.7.5-1.5.6-1.8.1-.3.4-1 .4-1s-.4-.1-.9.1-.6.4-.6.4c0-.1-.1-.3-.1-.4M625.3 28.2c0 .1-.1.2-.1.2M625.3 28.2c.1-.2.1-.4.2-.6M625 29l.3-.6M625.6 26.6c0 .3 0 .5-.1.8M625.5 27.4v.2M625.3 30.7c.2-.2.4-.5.5-.7M626.6 28.3c0 .1 0 .1-.1.2M625.8 30c.3-.5.5-1 .7-1.5M623.8 30.5c.2-.2.4-.4.6-.7M625.2 30.8l.1-.1M622.9 31.1c.3-.2.5-.3.7-.5M616.1 20.4c-.2 0-.3 0-.5.1M616.1 19.2h.9M615.2 20.5c-.2 0-.5.1-.7.1M615.2 19.3c.2 0 .4 0 .5-.1M624.4 29.8c.2-.2.3-.4.5-.7M614.3 19.4h.2M614.3 20.6c-.2.1-.5.1-.7.2M616.1 20.4h.9M615.2 20.5h.4M626.9 26.6c0 .3 0 .6-.1.8M613.5 20.8c.1 0 .1 0 0 0M610.8 22.1c.8-.5 1.7-1 2.8-1.3M614.3 20.6h.2M625 29c0 .1-.1.1-.1.2M626.6 28.3c.1-.2.1-.4.1-.6" clip-path="url(#d)"/><path fill="none" stroke="#002B7F
 " stroke-width=".76" d="M613.5 19.6a11 11 0 0 0-2.9 1.2c.1.4.1.8.2 1.3M624.6 31.5l.6-.6M615.2 19.3c-.2 0-.4.1-.6.1M614.3 19.4c-.3 0-.5.1-.8.2M623.8 30.5c-.1 0-.1.1-.2.1M616.1 19.2h-.3M626.8 27.4v.2M614.6 19.4h-.2M617 19.2h-.9M615.7 19.2c-.2 0-.4 0-.5.1M614.6 19.4c.2 0 .4-.1.6-.1M613.6 19.6c-.1 0-.1 0 0 0M613.6 19.6c.2-.1.5-.1.8-.2M626.9 26.6c0 .3 0 .6-.1.8" clip-path="url(#d)"/><path fill="none" stroke="#002B7F
 " stroke-width=".76" d="M613.5 19.6a11 11 0 0 0-2.9 1.2c.1.4.1.8.2 1.3M615.7 19.2h.3M626.6 28.3c.1-.2.1-.4.1-.6M625.8 30c.3-.5.5-1 .7-1.5M626.6 28.5c0-.1 0-.1.1-.2M626.8 27.6v-.2M626.9 26.6V26c-.2-3.7-4.5-6.7-9.9-6.7M610.8 22.1c0 .5.1 1.1.1 1.7v.8c0 .8.1 1.5.1 2.2M613.6 20.8c.2-.1.5-.1.7-.2M614.5 20.6c.2 0 .4-.1.7-.1M610.8 22.1c.8-.5 1.7-1 2.8-1.3M615.5 20.4h-.4M617 20.4h-.9M624.9 29.1c-.1.2-.3.5-.5.7M615.5 20.4c.2 0 .3 0 .5-.1M614.5 20.6h-.2M625.6 26.6c0 .3 0 .5-.1.8M625.2 28.4l-.3.6M625.5 27.6c0 .2-.1.4-.2.6M625.2 28.4c0-.1.1-.2.1-.2M625.5 27.6v-.2M624.9 29.1c0-.1.1-.1.1-.2M624.4 29.8" clip-path="url(#d)"/><path fill="none" stroke="#002B7F
 " stroke-width=".76" d="M625.6 26.6V26c-.2-3.1-3.9-5.6-8.6-5.6M611 26.8c.2 1.5.4 2.9.8 3.8l-2.4 2.3M623.8 30.5c.2-.2.4-.4.6-.7M623.8 30.5c-.1 0-.1.1-.2.1M623.6 30.6c-.2.2-.5.4-.7.5M625.2 30.8l.1-.1M625.8 30c-.2.2-.3.5-.5.7M624.6 31.5l.6-.6M628.2 30.1c0-.4-.3-.7-.8-.7-.4 0-.8.3-.8.7 0 .4.3.7.8.7.5.1.8-.3.8-.7z" clip-path="url(#d)"/><path fill="none" stroke="#002B7F
 " stroke-width=".76" d="M641.6 38.2l.1-.5L640 35c.4-.3.8-.7 1-1.2-1-.7-2.3-1.4-3.6-2-2.8-1.2-5.6-1.8-7.5-1.7-.6 0-1.2.1-1.8 0M626.7 30.1c-.3-.1-.6-.1-.8-.1M624.6 31.5l.7 1.3-.9.7-1.5-2.4M624.4 29.8c-2-.3-3.8-.8-5.2-1.4-2.1-.8-4.9-1.4-8.3-1.6M574 38.2h.3c.7 0 1.4.3 1.7.8l.2-.8s1 .2 1.4 1.3c.4 1.1 0 2.7 0 2.7s.2-.7.6-1.1c.4-.4 1.3-.9 1.8-1.2.5-.2 1-.6 1-.6v1c.9-.1 1.9 0 2.7.3-.3.7-1 1.3-1.8 1.6 0 0 .3.3.6.5l.3.3s-.6.1-.9.1c-.3 0-1.3.2-1.9.2-.4 0-.9-.1-1.2-.2-.1-.3-.2-.5-.5-.7-.4-.4-1-.5-1.4-.4M574 38.2c-1 .1-1.8 1-1.8 2 0 0 1.5-.1 2.5.4.9.5 1.7 2 1.7 2 0-.1.1-.1.1-.2.1-.1.2-.1.3-.2M605.2 22.1c.1-.5.1-.9.2-1.3-.6-.4-1.4-.7-2.1-.9M592.3 30.6c.2.2.5.4.8.6M592.1 30.4c.1 0 .1.1.2.1M600.3 19.3h.5M599 19.2h.9M601.3 19.4h.3M591.1 29.1c0-.1-.1-.1-.1-.2M590.7 28.4c0-.1-.1-.2-.1-.2M591.1 29.1c.1.2.3.4.4.6M590.5 27.6c0 .2.1.4.1.5M590.4 26.6c0 .3 0 .5.1.8M590.7 28.4c.1.2.1.3.2.5M600.4 20.4c-.2 0-.3 0-.5-.1M602.4 20.8c-.2-.1-.5-.1-.7-.2M605.2 22.1c-.8-.5-1.7-1-2.8-1.3M601.4 20.6c-.2 0-.4-.1-.7-.1M589.2 27.6v-.2M589.4 28.5c0-.1 0-.1-.1-.2M590.5 27.4c0 .1 0 .2.1.2M600.3 19.3h-.4M602.4 19.6c-.3-.1-.5-.1-.8-.2M601.3 19.4c-.2 0-.4-.1-.6-.1M603.2 19.8c-.2-.1-.5-.2-.8-.2M599 20.4h.9M601.4 20.6h.2M600.4 20.4h.3M589.1 26.6c0 .3 0 .6.1.8M589.7 29.2c.1.3.3.5.4.8M589.4 28.5c.1.2.2.5.3.7M590.8 30.8l-.1-.1M589.2 27.6c0 .2.1.4.1.6M592.1 30.4c-.2-.2-.4-.4-.6-.7M591.4 31.5l-.6-.6M590.1 30c.2.3.3.5.5.7M590.1 30" clip-path="url(#d)"/><path fill="none" stroke="#002B7F
 " stroke-width=".76" d="M605 26.7c.1-.7.1-1.4.1-2.2v-.4-.4c0-.6 0-1.1.1-1.7M602.4 19.6c.3.1.5.1.8.2M599 19.2h.9M589.2 27.4v.2M599.9 19.2h.4" clip-path="url(#d)"/><path fill="none" stroke="#002B7F
 " stroke-width=".76" d="M605.2 22.1c0-.5.1-.9.2-1.3-.6-.4-1.4-.7-2.1-.9M600.8 19.3h-.5M600.8 19.3c.2 0 .4.1.6.1M601.6 19.4h-.3M601.6 19.4c.3 0 .5.1.8.2M589.7 29.1c-.1-.2-.2-.4-.3-.7M589.3 28.2c-.1-.2-.1-.4-.1-.6M589.7 29.1c0 .1 0 .1 0 0M589.2 27.4c0-.3-.1-.6-.1-.8M590.1 30c-.2-.2-.3-.5-.4-.8M589.3 28.2c0 .1 0 .1.1.2M599 19.2c-5.4 0-9.7 3.1-9.9 6.7v.6M602.4 20.8c1 .3 2 .7 2.8 1.3M599 20.4h.9M599.9 20.4c.2 0 .4 0 .5.1M600.8 20.5c.2 0 .4.1.7.1M601.6 20.6c.3.1.5.1.7.2M601.6 20.6h-.2M600.8 20.5h-.3M591 28.9c-.1-.2-.2-.3-.2-.5M591 28.9c0 .1.1.1.1.2M591.5 29.8c-.2-.2-.3-.4-.4-.6M590.6 28.2c0 .1.1.2.1.2M590.5 27.4c0 .1 0 .2.1.2M590.6 28.2c-.1-.2-.1-.4-.1-.5M590.4 26.6c0 .3 0 .5.1.8" clip-path="url(#d)"/><path fill="none" stroke="#002B7F
 " stroke-width=".76" d="M599 20.4c-4.7 0-8.4 2.5-8.6 5.6v.6M589.3 30.1c0 .5-.3.8-.8.8-.4 0-.8-.3-.8-.7 0-.4.3-.7.8-.7.4-.1.8.2.8.6zM592.1 30.4c-.2-.2-.4-.4-.6-.7M589.3 30.1c.3-.1.5-.1.8-.1" clip-path="url(#d)"/><path fill="none" stroke="#002B7F
 " stroke-width=".76" d="M587.8 30.2c0-.1-.1-.1 0 0-.7 0-1.4 0-2.1-.1a20.23 20.23 0 0 0-10.9 3.6c.3.5.7.9 1.1 1.3l-1.9 3v.2M590.6 30.7l.1.1M590.6 30.7c-.2-.2-.4-.5-.5-.7M591.4 31.5l-.6-.6M593.1 31.1c-.3-.2-.5-.4-.8-.6M592.1 30.4c.1 0 .1.1.2.1M605 26.7c-.2 1.6-.4 2.9-.8 3.8l2.6 2.5M593.1 31.1l-1.5 2.4-1-.7.8-1.3M605 26.7c-3.5.2-6.4.8-8.5 1.7-1.3.6-3 1-4.9 1.4M578.1 43.3l-.9-.8-.4-.4M606.6 38.2c-.1-.2-.1-.3-.1-.5" clip-path="url(#d)"/><path fill="none" stroke="#002B7F
 " stroke-width=".76" d="M606.9 36.8s-.6-.5-1.3-.8c-.5-.2-1.5-.4-1.8-.5-.3-.1-.9-.2-.9-.2s0 .1.1.5.3.7.3.7c-1 .1-2 .6-2.7 1.2.7.7 1.6 1.2 2.7 1.2 0 0-.1.3-.3.7-.1.3-.1.5-.1.5s.6-.1.9-.2c.3-.1 1.3-.2 1.8-.5.7-.3 1.3-.8 1.3-.8M606.5 37.7c0-.2 0-.3.1-.5M606.9 36.8c-.1.1-.2.2-.2.4M606.6 37.2s0 .1 0 0M606.9 38.7c-.1-.1-.2-.3-.3-.4M609.2 38.7s.7.5 1.3.8c.5.2 1.5.4 1.8.5.3.1.9.2.9.2s0-.1-.1-.5-.3-.7-.3-.7c1-.1 2-.6 2.7-1.2-.7-.7-1.6-1.2-2.7-1.2 0 0 .1-.3.3-.7.1-.3.1-.5.1-.5s-.6.1-.9.2c-.3.1-1.3.2-1.8.5-.7.3-1.3.8-1.3.8M609.2 38.7" clip-path="url(#d)"/><path fill="none" stroke="#002B7F
 " stroke-width=".76" d="M609.2 38.7c.2-.3.4-.6.4-.9 0-.4-.1-.7-.4-.9M606.5 37.7c0 .2 0 .3.1.5M606.9 36.8c-.1.1-.2.2-.2.4M606.9 38.7c-.1-.1-.2-.3-.3-.4M606.6 37.3s0-.1 0 0M606.9 36.8c.3-.3.7-.5 1.2-.5s.9.2 1.2.5M608.9 38.9c-.2.2-.6.3-.9.3-.3 0-.6-.1-.8-.2M606.6 37.3c-.1.1-.1.3-.1.5M606.9 38.7l.3.3M609.2 38.7c-.1.1-.2.2-.3.2" clip-path="url(#d)"/><path fill="none" stroke="#002B7F
 " stroke-width=".76" d="M609.2 38.7c.2-.3.4-.6.4-.9 0-.4-.1-.7-.4-.9M616.2 41c-.1 0-.2.1-.3 0-.1 0-.2-.1-.3-.1" clip-path="url(#d)"/><path fill="none" stroke="#002B7F
 " stroke-width=".76" d="M616.2 41c.3-.1.6-.5.6-1 .1-.6-.2-1.1-.7-1.2-.4-.1-.9.4-.9 1-.1.5.1.9.4 1.1M623.1 40.1v.4c0 1.8-1.5 3.3-3.5 3.3-1.7 0-3.2-1.1-3.4-2.8M631.3 41.1c0-.1 0-1.2-.1-1.2s-.4 1-.5 1.1M608.9 38.9c-.1.3-.1.7-.1 1 0 1.8 1.6 3.3 3.5 3.3 1.5 0 2.8-.9 3.3-2.3M600.6 40.9c-.1.1-.2.1-.3.1h-.3M600.6 40.9c.3-.2.4-.6.4-1.1-.1-.6-.5-1.1-.9-1-.4.1-.7.6-.7 1.2.1.5.3.8.6 1M607.2 39c.1.3.1.6.1 1 0 1.8-1.5 3.3-3.5 3.3-1.5 0-2.8-.9-3.3-2.3M593 38c.1-.2.3-.6.4-1 .2-.7.2-1.4.2-1.6.1-.2.2-.9.2-.9s-.4 0-.8.2-.5.4-.5.4c-.2-.9-.9-1.7-1.6-2.1-.5.7-.8 1.6-.7 2.5 0 0-.1-.1-.6-.2s-.8 0-.8 0 .4.6.5.8c.1.2.4.9.8 1.5.3.4.6.7.7.9M590.7 38.4c.1 0 .1 0 0 0M590.9 38.5s-.1 0 0 0M592.9 38.1s0-.1.1-.1M590.8 38.5c0-.1 0-.1 0 0M591.1 40.2l.1-.1M590.7 38.4c-.2-.1-.7-.3-1.1-.4-.5-.1-1.4-.1-1.7-.1h-.8s0 .1.2.4c.2.3.3.5.3.5-.9.2-1.7.8-2.1 1.5.7.5 1.6.8 2.5.7 0 0-.1.2-.1.6v.4s.5-.2.8-.3c.3-.1 1.1-.4 1.5-.7.4-.3.8-.6.9-.8M593.3 39.9c-.1 0-.2-.1-.2-.1" clip-path="url(#d)"/><path fill="none" stroke="#002B7F
 " stroke-width=".76" d="M593.3 39.9c.2.1.7.3 1.1.4.5.1 1.4.1 1.7.1h.8s0-.1-.2-.4c-.2-.3-.3-.5-.3-.5.9-.2 1.7-.8 2.1-1.5-.7-.5-1.6-.8-2.5-.7 0 0 .1-.2.1-.6v-.4s-.5.2-.8.3c-.2.1-1.1.4-1.5.7-.4.3-.7.6-.9.7" clip-path="url(#d)"/><path fill="none" stroke="#002B7F
 " stroke-width=".76" d="M593 38c.3.3.6.7.6 1.1 0 .3-.1.5-.2.7M593.3 39.9c-.1.1-.1.2-.2.3M591.1 40.2c.1.1.3.2.4.2M593 38" clip-path="url(#d)"/><path fill="none" stroke="#002B7F
 " stroke-width=".76" d="M593.1 40.1c-.3.3-.7.4-1.1.4-.2 0-.4 0-.6-.1M590.7 38.4c.3-.4.8-.7 1.3-.7.4 0 .7.1.9.3M590.7 38.4c-.1.2-.2.4-.2.7 0 .4.2.8.5 1.1M585.7 43.6c-.1.1-.2.2-.3.2h-.4M585.7 43.6c.2-.2.3-.7.1-1.1-.2-.6-.7-1-1.1-.8-.4.1-.6.7-.4 1.3.1.4.4.7.7.8" clip-path="url(#d)"/><path fill="none" stroke="#002B7F
 " stroke-width=".76" d="M591.5 40.4c.2.4.3.9.3 1.4 0 1.7-1.5 3.1-3.3 3.1-1.1 0-2.2-.6-2.7-1.4M585.1 43.8c0 1.1-.5 2.1-1.5 2.3 0 0-1.2.1-2.8-1.2-1.6-1.3-2.5-2.3-2.5-2.3l-.1.8M593.1 40.1v.4c0 1.8 1.5 3.3 3.5 3.3 1.7 0 3.2-1.1 3.4-2.8M631.1 43.8c.3-.1.6-.4.7-.8.2-.6 0-1.2-.4-1.3-.4-.1-.9.2-1.1.8-.1.4-.1.8.1 1.1" clip-path="url(#d)"/><path fill="none" stroke="#002B7F
 " stroke-width=".76" d="M631.1 43.8c-.1 0-.3.1-.4 0-.1 0-.2-.1-.3-.2M631.1 43.8c0 1.1.5 2.1 1.5 2.3 0 0 1.2.1 2.8-1.2.8-.6 1.3-1.1 1.8-1.5M624.7 40.4c-.2.4-.3.9-.3 1.4 0 1.7 1.5 3.1 3.3 3.1 1.1 0 2.2-.6 2.7-1.4M578.1 43.3v.4s1.3 2.1 2.8 2.9c.8.5 2 1 3 .8.2 0 .3-.1.4-.1M637.8 44.2c-.5.6-1.5 1.9-2.5 2.5-.8.5-2 1-3 .8l-.9-.3" clip-path="url(#d)"/><path fill="none" stroke="#002B7F
 " stroke-width=".76" d="M631.5 47.2c-.6-.4-1-.9-1.3-1.6-.7.4-1.6.7-2.5.7-2 0-3.7-1.1-4.4-2.7-.9 1-2.2 1.6-3.7 1.6a5 5 0 0 1-3.9-1.8c-.9.8-2.1 1.3-3.4 1.3-1.7 0-3.3-.9-4.2-2.1-.9 1.3-2.4 2.1-4.2 2.1-1.3 0-2.5-.5-3.4-1.3a5 5 0 0 1-3.9 1.8c-1.5 0-2.7-.6-3.7-1.6-.7 1.6-2.5 2.7-4.4 2.7-.9 0-1.8-.2-2.5-.7-.3.8-.9 1.5-1.7 1.8M623.1 40.1c.3.3.7.4 1.1.4.2 0 .4 0 .6-.1M625.1 40.2c-.1.1-.3.2-.4.2M625.1 40.2l-.1-.1M623 39.8s-.1 0-.2.1M623.1 40.1c-.1-.1-.2-.2-.2-.3M602.3 182.4c-2.1-2.7-4.1-4-5.7-4.7-1.2-.6-2.5-.9-4.4-2.2-1.2-.8-2.1-1.5-2.7-2.7-.7-1.3-.5-2.5-.4-4.5.2-1.9.3-2.9 1.1-3.8 1-1.2 2.3-1.5 2.8-1.6 1.4-.3 2.5 0 3 .2 1.5.4 2 1 3.6 2.1 1 .7 2.4 1.5 4.1 2 2.8.8 5.3.2 6.2 0 1-.3 2.3-1 4.8-2.4 1-.6 1.7-1.3 3-1.8.5-.2 1.4-.4 2.6-.3.4.1 2.1.2 3.3 1.5.9 1 1.1 2 1.4 3.9.2 1.1.4 2.3-.1 3.8-.1.4-.4 1.3-1.1 2.1-.8 1-1.6 1.4-3 2-1.4.7-3.4 1.6-4.1 2-1.3.7-3.3 2.2-5 4.5" clip-path="url(#d)"/><path fill="none" stroke="#002B7F
 " stroke-width=".76" d="M603.8 179.9c-1-1-1.9-1.8-2.6-2.4-1.2-.9-1.8-1.4-2.3-1.6-.5-.2-1-.3-1.4-.8 0 0-.7-.8-.5-1.3.2-.4 1-.5 2.5-.4 2.5.2 3.4.6 5.2.9.8.1 2.6.3 4.9 0 2.9-.5 4.5-.9 4.5-.9.9-.2 1.9-.5 2.5.1.3.2.5.7.4 1.1-.1.7-.9.8-2.1 1.5-1.4.8-2.3 1.6-2.9 2.3-.5.5-1.1 1.1-1.7 2" clip-path="url(#d)"/><circle cx="607.2" cy="183.9" r="4.9" fill="none" stroke="#002B7F
 " stroke-width=".76" clip-path="url(#d)"/><path fill="none" stroke="#002B7F
 " stroke-width=".76" d="M636.9 175.6c-.8-1.1-2.1-3-2.8-5.3-.8-2.6-.7-4.6-.7-6.5.1-3.5.9-6.1 1.4-7.8 1.1-3.7 2.5-6.3 3.4-7.7.1-.2 1.7-3 1.9-2.8.3.1-1.6 3.5-2.9 8.5-.6 2.3-1.2 4.8-1.2 8 0 3.5.8 5.9 1.1 6.6.4 1.3 1.1 2.6 1.5 3.3" clip-path="url(#d)"/><path fill="none" stroke="#002B7F
 " stroke-width=".76" d="M643.7 152c-.6-1.3-1.3-2.8-2.1-4.2-.5-.9-1-1.7-1.5-2.5M638.4 177.9c1.7-1.9 3.6-4.5 5.2-7.8 1.8-3.7 2.4-6.9 2.7-8.7.6-3.5.7-6.6.6-8.9M638.4 158.5l-1.9 7-1.8-4.1M644.1 168.9l-2.1-6.1M647.4 166.1l-3.3 2.8M648.5 157.6l-2.5 5.3M643.8 159l2.2 3.9" clip-path="url(#d)"/><circle cx="653.6" cy="156.8" r="2.4" fill="none" stroke="#002B7F
 " stroke-width=".76" clip-path="url(#d)"/><path fill="none" stroke="#002B7F
 " stroke-width=".76" d="M652.7 159.3v7.6M654.3 159.3v6.3M677.6 115.9c0 2.2-.1 5.5-.8 9.3-.8 4.3-2 7.5-3.5 11.3-1.7 4.5-3.4 7.8-4.1 9.1-1 2-2.6 5.1-5.3 8.8-3.3 4.7-6.3 7.8-7.3 8.9-2.5 2.5-6.6 5.8-11.2 8.7" clip-path="url(#d)"/><path fill="none" stroke="#002B7F
 " stroke-width=".76" d="M656.4 133.4c-.3 2.8-.5 6.9.6 11.7.9 4 2.3 7.1 3.5 9.4M658.5 140l-1.8 3.4M655.3 145l2.1 2M659.2 146.9l-.7 3.2M665.8 131.9c0 2.2 0 5.4-.1 10.2 0 2.8-.1 4.7-.8 7.2-.6 2-1.4 3.5-1.9 4.5M663.4 136.8l2.3 3.2M668.3 142.1l-2.7 3.5M662.5 145l2.3 4.8M665.9 126.4c-1.1 1.4-2.4 3.2-3.5 5.5-.8 1.7-1.8 3.7-2.3 6.5-.5 2.6-.3 4.7-.1 6.6.2 1.9.6 4.5 1.7 7.5" clip-path="url(#d)"/><path fill="none" stroke="#002B7F
 " stroke-width=".76" d="M656.3 127.7c-1.4 2.8-2 5.3-2.4 7.1-.2 1.2-.7 3.5-.4 6.6.2 3.3 1.1 5.7 1.5 6.7.9 2.4 1.6 2.7 2.7 5 .7 1.6 1.6 3.9 1.9 7.2M656.3 127.7a16.88 16.88 0 0 1 4.5 7.8M665.9 126.4c.7 1.7 1.4 3.5 2 5.5.2.6 1 3.4 1.8 7.2.3 1.6.5 2.9.6 3.9" clip-path="url(#d)"/><circle cx="671.8" cy="123.6" r="2.4" fill="none" stroke="#002B7F
 " stroke-width=".76" clip-path="url(#d)"/><circle cx="684.2" cy="125.2" r="2.4" fill="none" stroke="#002B7F
 " stroke-width=".76" clip-path="url(#d)"/><path fill="none" stroke="#002B7F
 " stroke-width=".76" d="M671.4 126l2.1 10.1M672.9 125.7l1.6 7.9M660.8 97.3c.3 3.4 1.2 6 1.9 7.9.5 1.4 1.5 3.9 3.6 6.6 1.9 2.4 2.8 3.7 4.6 4.6 1.8.9 2.5 1.3 4 2.2.5.3 1 .6 1.5 1.3.7 1 .9 2 .9 2.7M667.7 92.8c.9 2.9 1.5 5.3 1.8 7 .3 1.4.8 4 1.6 7.8.4 1.7.7 3.1 1.6 4.7.9 1.5 1.5 2.2 2.2 2.7.9.6 2.1.8 2.6.9" clip-path="url(#d)"/><path fill="none" stroke="#002B7F
 " stroke-width=".76" d="M660.8 97.3c.9 1 2.6 2.5 4.8 3.6 1.6.8 3.3 1.2 4.4 1.4M664.1 102.2c1.3.4 5 1.9 6.6 5.5.4.8.5 1.7.5 1.7s-.9-2.7-3-3.6c-1.1-.5-2.3-.4-3-.2M672.1 111.1l-4.6-1.8" clip-path="url(#d)"/><path fill="none" stroke="#002B7F
 " stroke-width=".76" d="M667.7 92.8c.7.5 1.6 1.2 2.8 2.1 2.7 2.2 4.1 3.3 5.2 4.5 2.8 3.2 3.7 6.8 3.9 7.9.5 2.1.5 3.6.4 6.2 0 1.5-.1 3.7-.7 7.7-1.5 9.8-4.1 17-5.4 20.4-.1.2-.2.4-.2.5M670.8 97.5a41.44 41.44 0 0 1 8.8 21.3M673.6 108.5l4.6 3M677 104l-.3 3.5M672.2 102.2l2.8 1.7M682.2 126.4l-5.2 5.5M683.1 127.3l-6.9 7.6" clip-path="url(#d)"/><path fill="none" stroke="#002B7F
 " stroke-width=".76" d="M672.1 87c-.7 2.2-1.4 4.5-1.7 7.1 0 .2 0 .5-.1.7M672.8 89.7c1.1 1.7 2.9 4.5 2.7 9.5M672.5 93.3l2.4.6M676.8 88.7c1.3 5.1 2.1 11.2 2.6 17.4" clip-path="url(#d)"/><circle cx="682.2" cy="89.5" r="2.4" fill="none" stroke="#002B7F
 " stroke-width=".76" clip-path="url(#d)"/><path fill="none" stroke="#002B7F
 " stroke-width=".76" d="M680.5 91.3l-2.3 4.4M681.8 92l-3.1 6.5M653.6 77c-.1 3.7 1.3 5.7 1.9 6.4 2.9 3.5 8.4 3.5 9.6 3.5 3.4 0 5-1 7.2.2 1.6.8 2.4 2.2 2.9 2.8 1.3 1.9 1.5 3.8 1.6 5.3.1 1.2.1 3.2-.3 5.3M671.5 66.4c-2.4 4.3-2.4 7.5-2 9.5.3 1.4.8 2.1 3 7.5.8 1.9 1.4 3.4 1.8 4.4" clip-path="url(#d)"/><path fill="none" stroke="#002B7F
 " stroke-width=".76" d="M653.9 71c1.2.5 2.8 1.4 3.9 3 1.5 2.2.7 3.5 2.2 5.7 1.4 2 3.5 2.9 5.4 3.7 1.6.7 2.6.4 5.3 1.3 1.1.4 1.9.7 2.4 1M653.6 77c.6-.1 2-.1 3.3.3 1.2.4 2 1.1 2.4 1.5M657 81.1c.3.4 1.4 1.6 3.2 2.2 1.8.5 3.8 0 4.3-.2" clip-path="url(#d)"/><path fill="none" stroke="#002B7F
 " stroke-width=".76" d="M659.2 72.6c2.2 1.1 3.8 2.2 5 3.2 2.3 1.8 3.7 3.6 4.7 4.9 1.3 1.6 2.2 3 2.8 4.1M661.3 76.5l3.8.1M667.8 75.5l.7 4.7M665.2 80.4l4.5 1.3M653.9 71c1.7-.5 3.5-.5 4.5-.4.5 0 1.9.2 5.9 1.9 1.6.7 3 1.3 3.9 1.8M649.5 53.9c2.3 1.9 3.5 3.8 4.1 5.1.8 1.6.9 2.7 2.2 4.2.3.4 1.4 1.7 3.2 2.8 2.4 1.5 3.6 1.1 5.2 2 1.3.7 3 2.4 3.9 6.2" clip-path="url(#d)"/><path fill="none" stroke="#002B7F
 " stroke-width=".76" d="M649.5 53.9c1.1-.2 3.2-.6 5.3-.5 1.2.1 2.6.1 4.2.7.9.3 3.1 1.2 4.8 3.4.7.9 1.6 3.2 2.1 5.6.2 1 .1 2.6-.3 3.7 0 .1 0 .4.2.7.2.3.4.4.5.5.9.5 2.3 2.7 2.8 4.9" clip-path="url(#d)"/><path fill="none" stroke="#002B7F
 " stroke-width=".76" d="M653.3 55.1c2 1 3.4 2 4.3 2.8 2.3 2 3.7 4.1 5 5.9.7 1 1.2 1.9 1.6 2.5M657.2 55.4l1.2 3M656.3 60.5l4 .3M662.7 59.6l-.3 3.8" clip-path="url(#d)"/><circle cx="668.4" cy="64.6" r="2.4" fill="none" stroke="#002B7F
 " stroke-width=".76" clip-path="url(#d)"/><path fill="none" stroke="#002B7F
 " stroke-width=".76" d="M667.4 66.8v2.4M669.1 66.9v5.9M671.5 66.4c.9.7 1.5 1.4 1.9 1.9 1.3 1.5 3 3.5 3 5.9v1.1s1-1.8 2.7-3.9c1.2-1.5 2.4-2.3 2.5-2.3.1 0 1.8 4.1 1.7 6.9-.2 3.8-1.6 6.6-2.4 8.1-1.3 2.2-2.9 3.8-4 4.7" clip-path="url(#d)"/><path fill="none" stroke="#002B7F
 " stroke-width=".76" d="M672.3 70.6a40.5 40.5 0 0 1 2.3 11.2c.1 1.5.2 2.8.2 3.7M680.6 73.8c-.5 1.9-1.1 3.8-1.8 5.9-.8 2.3-1.6 4.5-2.4 6.6M671.7 73.6l2.2 2.5M676 76.6l-1.5 3.2M673.2 80.7l1.6 1.8M678.5 75.3l.8 2.5M680.9 79.6l-2.3 1.1M676.7 81.1l.7 2.7M688.3 94.6c-2.9 5.2-4.2 5.5-6.3 8.2-1 1.3-2.1 2.6-2.6 3.3M688.3 94.6c.4.7.8 1.8 1.2 3.1.4 1.3.7 2.5.8 4 .2 2.4-.2 3.6-.5 5-.4 1.6-1 3.1-2.9 5.4-1.8 2.1-4.6 3.2-7.1 4.3" clip-path="url(#d)"/><path fill="none" stroke="#002B7F
 " stroke-width=".76" d="M687.8 98.8c-.2 1.8-.7 3.9-1.5 6.3-1.4 4-3.5 6.9-5.1 8.8M685.8 101.6l.7 3M688.2 106.6l-3.4 1.8M683 106.1l.2 5.1M699 104.6c-.9-.2-2.5-.6-4.4-.3-2.1.3-3.9 1.5-4.6 2M699 104.6c-.6 1.2-1.7 3-2.9 4.9-.9 1.4-1.6 2.6-2.2 3.4-1 1.4-2.3 2.5-7 5.3-2 1.2-4.6 2.7-7.7 4.2M695 106.3c-.9.6-2.1 1.4-3.3 2.6-1.3 1.3-1.2 1.8-2.7 3.6-.8 1-2.2 2.7-4.3 4.3-1.2.9-2.3 1.4-3.1 1.8M692.9 106l-.4 2.2M693.5 110.7l-4 1.2M693.2 133.3c-5.4.7-12.6 2.7-18.7 8.1M690.8 135c-2.4 1.6-4.9 3.2-7.4 5-3.9 2.8-7.4 5.5-10.7 8.2M688.3 139.7l-6.1 1.2M679.8 139.5l-1.2 4.1M682.4 146.1l-8.1.9M693.2 133.3c-.4 2.7-1.6 8-5.9 12.3-3.4 3.4-7.1 4.7-10.3 5.8-3.9 1.4-7.3 1.8-9.7 2" clip-path="url(#d)"/><path fill="none" stroke="#002B7F
 " stroke-width=".76" d="M688.2 144.6l6.8.2c-.2 1.4-.8 4.8-3.5 7.8-2.5 2.8-5.4 3.7-7.2 4.2-3.8 1.1-5.7.4-10.2.7-2.6.1-6.4.6-11 2.2" clip-path="url(#d)"/><path fill="none" stroke="#002B7F
 " stroke-width=".76" d="M691.1 147.1c-4.4 2-8.1 3.2-10.7 3.9-3.8 1-7.6 1.7-11.5 4.8M690.8 150h-7.2M678.8 155l-6.2-1.5" clip-path="url(#d)"/><circle cx="669.3" cy="165.2" r="2.4" fill="none" stroke="#002B7F
 " stroke-width=".76" clip-path="url(#d)"/><path fill="none" stroke="#002B7F
 " stroke-width=".76" d="M667.2 153.4c-2.9 5.4-6 9.1-8.3 11.4-4.1 4.1-8.5 7-11.1 8.8-.8.5-1.7 1.1-2.2 1.4M667 164.3h-7.7M667 165.7h-9.1" clip-path="url(#d)"/><path fill="none" stroke="#002B7F
 " stroke-width=".76" d="M672.1 177.7c-3.9-2.4-9.4-4.8-15.9-4.6-8 .3-15.1 3.6-15.2 3.4-.1-.1 6.7-5 8.6-12.4.6-2.4.7-5 .7-5 0-1 0-2.1-.7-6.9-.8-5.5-1-6.2-1.4-6.2-.8-.1-.9 2.6-3.6 5.3-1.1 1.1-1.5 1-2.5 2.2-.3.4-1.5 1.8-2.3 4.2-.6 1.9-.6 3.2-.7 6.8-.1 4.4-.2 6.6-.4 7.2-1.2 4.3-4.3 7-5.2 7.7-2.2 1.8-4.3 2.5-6.2 3.2-.7.2-2.5.9-4.9 1.2-1.8.3-2.7.2-6.3.5-1.8.1-3.3.2-4.2.3" clip-path="url(#d)"/><path fill="none" stroke="#002B7F
 " stroke-width=".76" d="M668.3 178.4c-3-1-7.3-2-12.6-2-4.5 0-8.3.7-11 1.4M664.4 180.2l-3.7-3.5M659.9 174.9l-4.2 1.5M656.6 181.4l-6.3-4.5" clip-path="url(#d)"/><path fill="none" stroke="#002B7F
 " stroke-width=".76" d="M672.1 177.7c-.9 1.2-2.6 3.1-5.3 4.6-1 .6-5.2 2.8-10.2 2-4.2-.7-4.3-2.7-9.9-4.1-2.1-.5-4.6-1.1-7.5-.6-2.9.5-3.9 1.7-7.6 3.4-1.3.6-4.5 2-8.5 2.9-2.7.6-6.1.7-11.9.9" clip-path="url(#d)"/><path fill="none" stroke="#002B7F
 " stroke-width=".76" d="M607.2 192.3c0 .3.5 1.4 1.1 2 1.1 1.2 3.9.6 5.4-.4 4-2.7 6.4-5.2 6.4-5.2 1.2-1.2 1.7-1.9 3-2.4.8-.3 1.6-.4 3.4-.3 2.5.2 3.3.6 6.2 1.1 2.8.5 4.3.8 5.8.7l3.3-.2s-.7 1.4-1.6 2c-2 1.3-4.1 1.4-4.1 1.4s.9.7 1.8 1.8c1.3 1.5 1.2 3.8 1.2 3.8s-.9-1.1-2.6-2c-1.7-.9-3.5-.9-4.1-.9-1.7.1-2.9.9-5.2 2.4-3.1 2-3 2.5-4.8 3.4-1.9 1-4.2.9-7 .2-2.6-.6-4.7-1.9-7.1-5.3-.9-1.2-1.1-1.7-1.1-2.1z" clip-path="url(#d)"/><path fill="none" stroke="#002B7F
 " stroke-width=".76" d="M609.8 188c2.9.7 5.6 1.8 7.2 2.6.2.1.4.2.5.3M626.1 196.7l.4.4c1.9 1.7 3.3 3.3 4.3 4.5M630.8 201.6h7.6c-3-2.9-5.8-5.2-8-6.8-.2-.1-.3-.2-.5-.4l-.1-.1M620.1 188.6c-.1-.1-.2-.1-.4-.2-1.7-.7-3.7-1.5-4.7-1.9M607.2 192.3c0 .3-.6 1.5-1.1 2.1-1.1 1.2-3.9.6-5.4-.4-4-2.7-6.4-5.2-6.4-5.2-1.2-1.2-1.7-1.9-2.9-2.4-.8-.3-1.6-.4-3.4-.3-2.5.2-3.3.6-6.2 1.1-2.8.5-4.3.8-5.8.7l-3.3-.2s.7 1.4 1.6 2c2 1.3 4.1 1.4 4.1 1.4s-.9.7-1.8 1.8c-1.3 1.5-1.2 3.8-1.2 3.8s.9-1.1 2.6-2c1.7-.9 3.5-.9 4.1-.9 1.7.1 2.9.9 5.2 2.4 3.1 2 3 2.5 4.8 3.4 1.9 1 4.2.9 7 .2 2.6-.6 4.7-1.9 7.1-5.3.7-1.2 1-1.8 1-2.2zM604.3 187.9c-3 .6-6 2.1-7.7 3" clip-path="url(#d)"/><path fill="none" stroke="#002B7F
 " stroke-width=".76" d="M584.2 194.4c-2.2 1.6-5.3 4-8.3 7h7.6c1-1.2 2.5-2.9 4.4-4.6M594.3 188.9c1.5-.7 2.9-1.5 4.2-2.1 1.5-.6 3-.9 4.1-1.3M599.6 193.1c.8-.1 1.8-.4 2.7-1 .7-.5 1.6-1 2.1-2.2.2-.6.2-1.4.2-1.7M614.9 193.1c-.8-.1-1.8-.4-2.8-1-.7-.5-1.6-1-2.1-2.2-.2-.6-.2-1.5-.2-1.8M548.6 69.3c3.5-12.7 17.9-18.4 17.9-18.4s-14.6 4.9-20.5 17.2M551.7 66.9c3.2-6.9 8-11.4 14.8-16M564.8 63.4s-12.9-1-19 9.7M545.7 75.6c5.9-9.2 19.1-12.1 19.1-12.1M545.7 80.4c5.9-10.1 10.6-13.6 19.1-17M548.6 54.9s-8.1 13.3-7.8 25.5M543.8 83.2c-1.9-14.2 4.8-28.3 4.8-28.3M545.7 81.3c-.1-12.2.4-16.7 2.9-26.4M556.3 73s-15.5 9.6-19.7 20.6M537.9 95.8c4-10.1 18.4-22.8 18.4-22.8M541.5 95.7c4.9-10.7 8.9-15.6 14.8-22.7M537.9 60.7s-7.1 15.7-.1 30.4M540.5 87c-5-10.4-2.6-26.3-2.6-26.3M542.2 84.9c-3-9.6-3.3-11-4.2-24.2M553.4 84.1s-14.6 9.2-17.2 24.1M537.6 109.8c3-15.9 15.7-25.7 15.7-25.7M541.7 107.2c1.8-11.8 5.4-15 11.7-23.1M531.7 69.4s-5.6 24 4.8 37.2M538.2 101.6c-7.6-8.6-6.5-32.2-6.5-32.2M539.9 98.2c-5.2-4.8-7.3-15.6-8.2-28.8M526.4 84.7s-.9 25.8 12.3 35.7M539.4 117.3c-10.9-11.1-13-32.6-13-32.6M540.2 112.3c-6.8-6-11.2-13.8-13.8-27.6M523.5 112.3s4.1 27.9 21.2 33.7M543.5 140.1c-13.5-6.1-20-27.8-20-27.8M542.7 134.1c-7.7-3.4-13.6-8.5-19.2-21.8M519 157.9s26.1 0 40.4 12.5M564.8 167.4c-19.3-14.3-45.8-9.6-45.8-9.6M563.4 161.5c-13.3-6.4-25.7-8.7-44.4-3.7M555.6 123.9s-6.6 14-3 29.3M558.1 158.8c-7.3-14.4-2.5-34.9-2.5-34.9M563.4 161.5c-5.9-9.9-7.4-26.2-7.8-37.7M564.4 140.4s-4.4 15.3 1.8 30.9M569.5 172.1c-7.3-14.4-5.2-31.7-5.2-31.7M579.4 179.9c-9.4-7.8-14.6-28.1-15-39.5M568.7 150.1s-.8 9.7.7 13.8M583.1 180c-14.4-13.1-14.4-29.9-14.4-29.9M587.8 180.3c-7.7-5.8-16.7-19-19.1-30.2M533.3 175.5s24.5-.4 40.1 4.4M579.4 179.9c-20.2-7.7-46.1-4.3-46.1-4.3M574.1 173.6c-13.4-5.2-22.4-3.4-40.8 1.9" clip-path="url(#d)"/><path fill="none" stroke="#002B7F
 " stroke-width=".76" d="M546.4 189.5s33.7-8.4 49.5-4.3c1.6.3 3.5.6 5.1.8M595.8 185.2c-27.3-7.8-49.5 4.3-49.5 4.3M587.8 180.3c-18.8-1.6-25.9.3-41.5 9.2M602.1 183.8c-19.8-1-20-21.9-20-21.9s-3.4 5.7-1.6 11.2M521.9 139.6c8.5 11 8.7 14.6 8.7 14.6s-.8-5.4-2.8-9.6c-2.5-5.3-4.6-5.6-4.6-5.6-2.1 1-3.4 1.8-3.4 1.8s8.7 10.2 10.7 13.5M523.5 139c5.9 1.1 18.7 6.3 21.2 7M527.2 143.3c6.4 1.5 13.1 4.9 18.8 7.2M528.1 145.2l20.1 11M543.6 115.9c-1.9 11.4-1.8 26.2 4.5 40.3" clip-path="url(#d)"/><path fill="none" stroke="#002B7F
 " stroke-width=".76" d="M543.6 115.9h4c-.1.9-.3 4.7 2.4 7.8a6 6 0 0 0 2.5 1.8c-6.4 0-8.9-4.7-8.9-9.6zM545.3 115.9c.3 6 3.5 8.7 7 9.5M551.5 157c-5.7-10-7.2-19.4-6.3-35.2M546.9 123.7c-.4 17.6 2.2 24.7 8.3 33.6" clip-path="url(#d)"/><path fill="none" stroke="#002B7F
 " stroke-width=".76" d="M547.7 139.5l2-7.7c0 6.2.5 8.5 1.8 10.8M546.3 99c-6.6 8-7.6 18-7.6 33.1M546.3 99H550.9c-2.5 2.2-1.9 12.2-1.9 12.2-1.9-5.1-2.1-7.5-2.7-12.2zM548.5 99c-.8 6.5.1 7.3.6 12.2M540.6 133.1c-.1-12.5 1-24.3 6-31.9M542.7 134.1c-.1-12.5 0-21.8 4.3-29.9M521.3 101.2c-.1 4.6.9 9.4.9 9.4l1.3-9c-2.1-.4-3.8-.6-3.8-.6s.4 6.3 2.5 9.6M523.7 101.5c-1.1-.1 12.4 18.6 15.4 19M523.2 103.3c2.4 6.5 10.1 19.1 15.7 21.4M522.9 105.4c1.1 2.8 9 20.1 15.9 21.4M606.3 63.4l-11.2-3.9.8 1.9-7-2 .7-.8s-2.8-.1-4.2-.1l3.1 2.7v-1L599 64l-.8-1.5 7.6 3.1-.6-1.4 1.1-.8zM605.4 66.3l-13.2 1 1.6 1.5-8.1 1.1.4-1s-3 1.1-4.5 1.7l4.2 1.2-.3-1 12.4-.8-1.4-1.1 9.1-.3-1.2-1.1 1-1.2zM605.4 69.5l-9.9 3.9 1.6.8-6 2.7.1-.9s-2.1 1.5-3 2.4l3.5-.1-.5-.7 9.4-3.6-1.3-.5 6.9-2.4-1.2-.5.4-1.1zM609.9 63.3l11.2-3.9-.8 1.9 7-2-.7-.8s2.8-.1 4.2-.1l-3.1 2.7v-1l-10.5 3.8.8-1.5-7.6 3.1.6-1.4-1.1-.8zM610.8 66.2l13.2 1-1.6 1.5 8.1 1.1-.4-1s3 1.1 4.5 1.7l-4.2 1.2.3-1-12.4-.8 1.4-1.1-9.1-.3 1.2-1.1-1-1.2zM610.8 69.4l9.9 3.9-1.6.8 6 2.7-.1-.9s2.1 1.5 3 2.4l-3.5-.1.5-.7-9.4-3.6 1.3-.5L610 71l1.2-.5-.4-1.1zM573.9 150.5l-3.3 5.7M578 150.5l-5.6 9.8M582.3 150.5l-7.9 13.7M586.5 150.5l-9.9 17.2M578.9 171.1l1.1-1.9M582.4 165l8.3-14.4M583.7 170.1l11.4-19.6M585.6 174.2l3.7-6.4M591.8 163.3l7.4-12.7M587.9 177.5l2.2-3.9M596.2 163.1l7.2-12.5M607.7 150.5l-8.3 14.5M602.6 166.8l9.4-16.3M606.4 167.6l9.9-17.1M611 166.9l9.5-16.4M617.3 163.3l7.5-12.9M621.7 163.1l7.3-12.6M624.5 165.6l8.7-15.1M635.5 153.9l-10.6 18.3M623.7 174.4l-5.6 9.7M613.7 184.4l3.9-6.7M613.9 176.7l2-3.6M608.2 179.2l3-5.3M603.6 179.7l3.1-5.3M600.8 177.3l2-3.4M597.7 175.3l1.1-1.9M590.7 180l2.3-4M593.9 181.9l2.5-4.4M597.4 183.1l2.1-3.6M601.3 183.7l.9-1.5M633.4 164.8l-10.9 18.9M634.3 170.7l-6.8 11.7M633.5 179.3l2.8-4.7" clip-path="url(#d)"/></g></svg>